<svg version="1.0" xmlns="http://www.w3.org/2000/svg" width="149.333" height="149.333" viewBox="0 0 112 112"><path d="M97.1 12.1c-8.9 4.6-15.3 6-28.4 6.4-13.2.5-17.9 1.2-26.1 4C18.8 30.8 7.4 51 13 75.2c1.1 4.8 1.1 5.9-.1 7.1-2.7 2.8-11.4 13-12.2 14.4-1.5 2.5.1 6.2 3 6.9 2.8.7 3.5.1 13.9-12.2C25.1 82.5 34 74.5 44 67.5 49.9 63.3 65.6 55 67.5 55c.7 0 2 .9 3 2 3 3.3 1.3 6.4-5.2 9.5C51.9 72.8 28 91.3 28 95.4c0 3.6 14.6 8.5 23.5 7.9 20.7-1.4 41.3-16 51.9-36.8 6.1-12.1 7.9-20.7 8-38.6.1-14.1-.1-15.9-1.8-17.8-2.5-2.8-3.7-2.6-12.5 2z"/></svg>