<?xml version="1.0" standalone="no"?>
<!DOCTYPE svg PUBLIC "-//W3C//DTD SVG 20010904//EN"
 "http://www.w3.org/TR/2001/REC-SVG-20010904/DTD/svg10.dtd">
<svg version="1.0" xmlns="http://www.w3.org/2000/svg"
 width="112.000000pt" height="112.000000pt" viewBox="0 0 112.000000 112.000000"
 preserveAspectRatio="xMidYMid meet">
<metadata>
Created by potrace 1.11, written by Peter Selinger 2001-2013
</metadata>
<g transform="translate(0.000000,112.000000) scale(0.100000,-0.100000)"
fill="#000000" stroke="none">
<path d="M971 999 c-89 -46 -153 -60 -284 -64 -132 -5 -179 -12 -261 -40 -238
-83 -352 -285 -296 -527 11 -48 11 -59 -1 -71 -27 -28 -114 -130 -122 -144
-15 -25 1 -62 30 -69 28 -7 35 -1 139 122 75 89 164 169 264 239 59 42 216
125 235 125 7 0 20 -9 30 -20 30 -33 13 -64 -52 -95 -134 -63 -373 -248 -373
-289 0 -36 146 -85 235 -79 207 14 413 160 519 368 61 121 79 207 80 386 1
141 -1 159 -18 178 -25 28 -37 26 -125 -20z"/>
</g>
</svg>
