<svg width="590" height="488" viewBox="0 0 590 488" fill="none" xmlns="http://www.w3.org/2000/svg">
<g clip-path="url(#clip0)">
<g clip-path="url(#clip1)">
<path d="M647.143 72.3394C639.469 72.3394 632.416 68.9136 628.268 63.0138L603.583 28.1859C601.716 25.7118 599.02 25.3312 597.983 25.3312C596.946 25.3312 594.042 25.5215 592.382 28.1859L567.698 63.0138C563.549 68.9136 556.497 72.3394 548.822 72.3394C541.147 72.3394 534.094 68.9136 529.946 63.0138L505.262 28.1859C503.395 25.7118 500.698 25.3312 499.661 25.3312C498.624 25.3312 495.72 25.5215 494.061 28.1859L469.377 63.0138C465.228 68.9136 458.175 72.3394 450.5 72.3394C442.825 72.3394 435.773 68.9136 431.624 63.0138L406.94 28.1859C405.073 25.7118 402.377 25.3312 401.34 25.3312C400.303 25.3312 397.399 25.5215 395.739 28.1859L371.055 63.0138C366.906 68.9136 359.854 72.3394 352.179 72.3394C344.504 72.3394 337.451 68.9136 333.303 63.0138L308.619 28.1859C306.752 25.7118 304.055 25.3312 303.018 25.3312C301.981 25.3312 299.077 25.5215 297.418 28.1859L272.733 63.0138C268.585 68.9136 261.532 72.3394 253.857 72.3394C246.183 72.3394 239.13 68.9136 234.981 63.0138L210.297 28.1859C208.43 25.7118 205.734 25.3312 204.697 25.3312C203.66 25.3312 200.755 25.5215 199.096 28.1859L174.412 63.0138C170.263 68.9136 163.211 72.3394 155.536 72.3394C147.861 72.3394 140.808 68.9136 136.66 63.0138L111.976 28.1859C110.109 25.7118 107.412 25.3312 106.375 25.3312C105.338 25.3312 102.434 25.5215 100.774 28.1859L76.0904 63.0138C71.9418 68.9136 64.8892 72.3394 57.2143 72.3394C49.5394 72.3394 42.4869 68.9136 38.3383 63.0138L1.41586 11.0574C-0.865865 7.63173 0.171231 3.25446 3.69753 1.16097C7.43126 -0.932508 12.2022 0.019072 14.4839 3.25445L51.4063 55.2109C53.2732 57.685 55.9698 58.0656 57.0069 58.0656C58.0441 58.0656 60.9481 57.8753 62.6075 55.2109L87.2915 20.3829C91.4401 14.4831 98.4928 11.0574 106.168 11.0574C113.843 11.0574 120.895 14.4831 125.044 20.3829L149.728 55.2109C151.595 57.685 154.291 58.0656 155.328 58.0656C156.366 58.0656 159.27 57.8753 160.929 55.2109L185.613 20.3829C189.762 14.4831 196.814 11.0574 204.489 11.0574C212.164 11.0574 219.217 14.4831 223.365 20.3829L248.049 55.2109C249.916 57.685 252.613 58.0656 253.65 58.0656C254.687 58.0656 257.591 57.8753 259.251 55.2109L283.935 20.3829C288.083 14.4831 295.136 11.0574 302.811 11.0574C310.486 11.0574 317.538 14.4831 321.687 20.3829L346.371 55.2109C348.238 57.685 350.934 58.0656 351.971 58.0656C353.009 58.0656 355.913 57.8753 357.572 55.2109L382.256 20.3829C386.405 14.4831 393.457 11.0574 401.132 11.0574C408.807 11.0574 415.86 14.4831 420.008 20.3829L444.693 55.2109C446.559 57.685 449.256 58.0656 450.293 58.0656C451.33 58.0656 454.234 57.8753 455.894 55.2109L480.578 20.3829C484.726 14.4831 491.779 11.0574 499.454 11.0574C507.129 11.0574 514.181 14.4831 518.33 20.3829L543.014 55.2109C544.881 57.685 547.577 58.0656 548.615 58.0656C549.652 58.0656 552.556 57.8753 554.215 55.2109L578.899 20.3829C583.048 14.4831 590.1 11.0574 597.775 11.0574C605.45 11.0574 612.503 14.4831 616.651 20.3829L641.335 55.2109C643.202 57.685 645.899 58.0656 646.936 58.0656C647.973 58.0656 650.877 57.8753 652.537 55.2109L689.667 3.25445C691.948 -0.171244 696.926 -0.932508 700.453 1.16097C704.187 3.25446 705.016 7.82205 702.735 11.0574L665.812 63.0138C661.664 68.9136 654.611 72.3394 647.143 72.3394Z" fill="#FFC805"/>
<path d="M647.148 135.525C639.473 135.525 632.42 132.099 628.272 126.199L603.588 91.3711C601.721 88.897 599.024 88.5164 597.987 88.5164C596.95 88.5164 594.046 88.7067 592.386 91.3711L567.702 126.199C563.554 132.099 556.501 135.525 548.826 135.525C541.151 135.525 534.099 132.099 529.95 126.199L505.266 91.3711C503.399 88.897 500.703 88.5164 499.666 88.5164C498.628 88.5164 495.724 88.7067 494.065 91.3711L469.381 126.199C465.232 132.099 458.18 135.525 450.505 135.525C442.83 135.525 435.777 132.099 431.629 126.199L406.944 91.3711C405.078 88.897 402.381 88.5164 401.344 88.5164C400.307 88.5164 397.403 88.7067 395.743 91.3711L371.059 126.199C366.911 132.099 359.858 135.525 352.183 135.525C344.508 135.525 337.456 132.099 333.307 126.199L308.623 91.3711C306.756 88.897 304.059 88.5164 303.022 88.5164C301.985 88.5164 299.081 88.7067 297.422 91.3711L272.738 126.199C268.589 132.099 261.537 135.525 253.862 135.525C246.187 135.525 239.134 132.099 234.985 126.199L210.301 91.3711C208.435 88.897 205.738 88.5164 204.701 88.5164C203.664 88.5164 200.76 88.7067 199.1 91.3711L174.416 126.199C170.267 132.099 163.215 135.525 155.54 135.525C147.865 135.525 140.813 132.099 136.664 126.199L111.98 91.3711C110.113 88.897 107.416 88.5164 106.379 88.5164C105.342 88.5164 102.438 88.7067 100.779 91.3711L76.0946 126.199C71.946 132.099 64.8933 135.525 57.2184 135.525C49.5436 135.525 42.491 132.099 38.3424 126.199L1.42001 74.2426C-0.861715 70.8169 0.175381 66.4396 3.70168 64.3462C7.43541 62.2527 12.2063 63.2042 14.488 66.4396L51.4104 118.396C53.2773 120.87 55.9739 121.251 57.0111 121.251C58.0482 121.251 60.9523 121.06 62.6117 118.396L87.2957 83.5681C91.4443 77.6683 98.497 74.2426 106.172 74.2426C113.847 74.2426 120.899 77.6683 125.048 83.5681L149.732 118.396C151.599 120.87 154.296 121.251 155.333 121.251C156.37 121.251 159.274 121.06 160.933 118.396L185.617 83.5681C189.766 77.6683 196.818 74.2426 204.493 74.2426C212.168 74.2426 219.221 77.6683 223.369 83.5681L248.054 118.396C249.92 120.87 252.617 121.251 253.654 121.251C254.691 121.251 257.595 121.06 259.255 118.396L283.939 83.5681C288.088 77.6683 295.14 74.2426 302.815 74.2426C310.49 74.2426 317.542 77.6683 321.691 83.5681L346.375 118.396C348.242 120.87 350.938 121.251 351.976 121.251C353.013 121.251 355.917 121.06 357.576 118.396L382.261 83.5681C386.409 77.6683 393.462 74.2426 401.137 74.2426C408.811 74.2426 415.864 77.6683 420.013 83.5681L444.697 118.396C446.564 120.87 449.26 121.251 450.297 121.251C451.334 121.251 454.239 121.06 455.898 118.396L480.582 83.5681C484.73 77.6683 491.783 74.2426 499.458 74.2426C507.133 74.2426 514.186 77.6683 518.334 83.5681L543.018 118.396C544.885 120.87 547.582 121.251 548.619 121.251C549.656 121.251 552.56 121.06 554.219 118.396L578.904 83.5681C583.052 77.6683 590.105 74.2426 597.78 74.2426C605.454 74.2426 612.507 77.6683 616.656 83.5681L641.34 118.396C643.207 120.87 645.903 121.251 646.94 121.251C647.978 121.251 650.881 121.06 652.541 118.396L689.464 66.4396C691.745 63.0139 696.723 62.2527 700.25 64.3462C703.983 66.4396 704.813 71.0072 702.531 74.2426L665.609 126.199C661.668 132.099 654.615 135.525 647.148 135.525Z" fill="#FFC805"/>
<path d="M647.148 198.71C639.473 198.71 632.42 195.284 628.272 189.384L603.588 154.556C601.721 152.082 599.024 151.702 597.987 151.702C596.95 151.702 594.046 151.892 592.386 154.556L567.702 189.384C563.554 195.284 556.501 198.71 548.826 198.71C541.151 198.71 534.099 195.284 529.95 189.384L505.266 154.556C503.399 152.082 500.703 151.702 499.666 151.702C498.628 151.702 495.724 151.892 494.065 154.556L469.381 189.384C465.232 195.284 458.18 198.71 450.505 198.71C442.83 198.71 435.777 195.284 431.629 189.384L406.944 154.556C405.078 152.082 402.381 151.702 401.344 151.702C400.307 151.702 397.403 151.892 395.743 154.556L371.059 189.384C366.911 195.284 359.858 198.71 352.183 198.71C344.508 198.71 337.456 195.284 333.307 189.384L308.623 154.556C306.756 152.082 304.059 151.702 303.022 151.702C301.985 151.702 299.081 151.892 297.422 154.556L272.738 189.384C268.589 195.284 261.537 198.71 253.862 198.71C246.187 198.71 239.134 195.284 234.985 189.384L210.301 154.556C208.435 152.082 205.738 151.702 204.701 151.702C203.664 151.702 200.76 151.892 199.1 154.556L174.416 189.384C170.267 195.284 163.215 198.71 155.54 198.71C147.865 198.71 140.813 195.284 136.664 189.384L111.98 154.556C110.113 152.082 107.416 151.702 106.379 151.702C105.342 151.702 102.438 151.892 100.779 154.556L76.0946 189.384C71.946 195.284 64.8933 198.71 57.2184 198.71C49.5436 198.71 42.491 195.284 38.3424 189.384L1.42001 137.428C-0.861715 134.002 0.175381 129.625 3.70168 127.531C7.43541 125.438 12.2063 126.389 14.488 129.625L51.4104 181.581C53.2773 184.055 55.9739 184.436 57.0111 184.436C58.0482 184.436 60.9523 184.246 62.6117 181.581L87.2957 146.753C91.4443 140.853 98.497 137.428 106.172 137.428C113.847 137.428 120.899 140.853 125.048 146.753L149.732 181.581C151.599 184.055 154.296 184.436 155.333 184.436C156.37 184.436 159.274 184.246 160.933 181.581L185.617 146.753C189.766 140.853 196.818 137.428 204.493 137.428C212.168 137.428 219.221 140.853 223.369 146.753L248.054 181.581C249.92 184.055 252.617 184.436 253.654 184.436C254.691 184.436 257.595 184.246 259.255 181.581L283.939 146.753C288.088 140.853 295.14 137.428 302.815 137.428C310.49 137.428 317.542 140.853 321.691 146.753L346.375 181.581C348.242 184.055 350.938 184.436 351.976 184.436C353.013 184.436 355.917 184.246 357.576 181.581L382.261 146.753C386.409 140.853 393.462 137.428 401.137 137.428C408.811 137.428 415.864 140.853 420.013 146.753L444.697 181.581C446.564 184.055 449.26 184.436 450.297 184.436C451.334 184.436 454.239 184.246 455.898 181.581L480.582 146.753C484.73 140.853 491.783 137.428 499.458 137.428C507.133 137.428 514.186 140.853 518.334 146.753L543.018 181.581C544.885 184.055 547.582 184.436 548.619 184.436C549.656 184.436 552.56 184.246 554.219 181.581L578.904 146.753C583.052 140.853 590.105 137.428 597.78 137.428C605.454 137.428 612.507 140.853 616.656 146.753L641.34 181.581C643.207 184.055 645.903 184.436 646.94 184.436C647.978 184.436 650.881 184.246 652.541 181.581L689.464 129.625C691.745 126.199 696.723 125.438 700.25 127.531C703.983 129.625 704.813 134.192 702.531 137.428L665.609 189.384C661.668 195.284 654.615 198.71 647.148 198.71Z" fill="#FFC805"/>
<path d="M647.148 261.895C639.473 261.895 632.42 258.469 628.272 252.569L603.588 217.741C601.721 215.267 599.024 214.886 597.987 214.886C596.95 214.886 594.046 215.077 592.386 217.741L567.702 252.569C563.554 258.469 556.501 261.895 548.826 261.895C541.151 261.895 534.099 258.469 529.95 252.569L505.266 217.741C503.399 215.267 500.703 214.886 499.666 214.886C498.628 214.886 495.724 215.077 494.065 217.741L469.381 252.569C465.232 258.469 458.18 261.895 450.505 261.895C442.83 261.895 435.777 258.469 431.629 252.569L406.944 217.741C405.078 215.267 402.381 214.886 401.344 214.886C400.307 214.886 397.403 215.077 395.743 217.741L371.059 252.569C366.911 258.469 359.858 261.895 352.183 261.895C344.508 261.895 337.456 258.469 333.307 252.569L308.623 217.741C306.756 215.267 304.06 214.886 303.022 214.886C301.985 214.886 299.081 215.077 297.422 217.741L272.738 252.569C268.589 258.469 261.537 261.895 253.862 261.895C246.187 261.895 239.134 258.469 234.986 252.569L210.302 217.741C208.435 215.267 205.738 214.886 204.701 214.886C203.664 214.886 200.76 215.077 199.1 217.741L174.209 252.569C170.06 258.469 163.008 261.895 155.333 261.895C147.658 261.895 140.605 258.469 136.457 252.569L111.773 217.741C109.906 215.267 107.209 214.886 106.172 214.886C105.135 214.886 102.231 215.077 100.571 217.741L75.8872 252.569C71.7386 258.469 64.686 261.895 57.0111 261.895C49.3362 261.895 42.2837 258.469 38.1351 252.569L1.21257 200.613C-1.06915 197.187 -0.0319272 192.81 3.49437 190.716C7.2281 188.623 11.999 189.574 14.2807 192.81L51.2031 244.766C53.07 247.24 55.7666 247.621 56.8038 247.621C57.8409 247.621 60.7448 247.43 62.4043 244.766L87.0884 209.938C91.237 204.038 98.2895 200.613 105.964 200.613C113.639 200.613 120.692 204.038 124.841 209.938L149.525 244.766C151.391 247.24 154.088 247.621 155.125 247.621C156.162 247.621 159.066 247.43 160.726 244.766L185.41 209.938C189.559 204.038 196.611 200.613 204.286 200.613C211.961 200.613 219.013 204.038 223.162 209.938L247.846 244.766C249.713 247.24 252.41 247.621 253.447 247.621C254.484 247.621 257.388 247.43 259.047 244.766L283.732 209.938C287.88 204.038 294.933 200.613 302.608 200.613C310.282 200.613 317.335 204.038 321.484 209.938L346.168 244.766C348.035 247.24 350.731 247.621 351.768 247.621C352.805 247.621 355.71 247.43 357.369 244.766L382.053 209.938C386.201 204.038 393.254 200.613 400.929 200.613C408.604 200.613 415.657 204.038 419.805 209.938L444.489 244.766C446.356 247.24 449.053 247.621 450.09 247.621C451.127 247.621 454.031 247.43 455.69 244.766L480.374 209.938C484.523 204.038 491.576 200.613 499.251 200.613C506.925 200.613 513.978 204.038 518.127 209.938L542.811 244.766C544.678 247.24 547.374 247.621 548.411 247.621C549.449 247.621 552.352 247.43 554.012 244.766L578.696 209.938C582.845 204.038 589.897 200.613 597.572 200.613C605.247 200.613 612.3 204.038 616.448 209.938L641.132 244.766C642.999 247.24 645.696 247.621 646.733 247.621C647.77 247.621 650.674 247.43 652.333 244.766L689.256 192.81C691.538 189.384 696.516 188.623 700.042 190.716C703.776 192.81 704.606 197.377 702.324 200.613L665.402 252.569C661.668 258.469 654.615 261.895 647.148 261.895Z" fill="#FFC805"/>
<path d="M647.148 325.08C639.473 325.08 632.42 321.654 628.272 315.754L603.588 280.926C601.721 278.452 599.024 278.072 597.987 278.072C596.95 278.072 594.046 278.262 592.386 280.926L567.702 315.754C563.554 321.654 556.501 325.08 548.826 325.08C541.151 325.08 534.099 321.654 529.95 315.754L505.266 280.926C503.399 278.452 500.703 278.072 499.666 278.072C498.628 278.072 495.724 278.262 494.065 280.926L469.381 315.754C465.232 321.654 458.18 325.08 450.505 325.08C442.83 325.08 435.777 321.654 431.629 315.754L406.944 280.926C405.078 278.452 402.381 278.072 401.344 278.072C400.307 278.072 397.403 278.262 395.743 280.926L371.059 315.754C366.911 321.654 359.858 325.08 352.183 325.08C344.508 325.08 337.456 321.654 333.307 315.754L308.623 280.926C306.756 278.452 304.059 278.072 303.022 278.072C301.985 278.072 299.081 278.262 297.422 280.926L272.738 315.754C268.589 321.654 261.537 325.08 253.862 325.08C246.187 325.08 239.134 321.654 234.985 315.754L210.301 280.926C208.435 278.452 205.738 278.072 204.701 278.072C203.664 278.072 200.76 278.262 199.1 280.926L174.416 315.754C170.267 321.654 163.215 325.08 155.54 325.08C147.865 325.08 140.813 321.654 136.664 315.754L111.98 280.926C110.113 278.452 107.416 278.072 106.379 278.072C105.342 278.072 102.438 278.262 100.779 280.926L76.0946 315.754C71.946 321.654 64.8933 325.08 57.2184 325.08C49.5436 325.08 42.491 321.654 38.3424 315.754L1.42001 263.798C-0.861715 260.372 0.175381 255.995 3.70168 253.901C7.43541 251.808 12.2063 252.759 14.488 255.995L51.4104 307.951C53.2773 310.425 55.9739 310.806 57.0111 310.806C58.0482 310.806 60.9523 310.616 62.6117 307.951L87.2957 273.123C91.4443 267.223 98.497 263.798 106.172 263.798C113.847 263.798 120.899 267.223 125.048 273.123L149.732 307.951C151.599 310.425 154.296 310.806 155.333 310.806C156.37 310.806 159.274 310.616 160.933 307.951L185.617 273.123C189.766 267.223 196.818 263.798 204.493 263.798C212.168 263.798 219.221 267.223 223.369 273.123L248.054 307.951C249.92 310.425 252.617 310.806 253.654 310.806C254.691 310.806 257.595 310.616 259.255 307.951L283.939 273.123C288.088 267.223 295.14 263.798 302.815 263.798C310.49 263.798 317.542 267.223 321.691 273.123L346.375 307.951C348.242 310.425 350.938 310.806 351.976 310.806C353.013 310.806 355.917 310.616 357.576 307.951L382.261 273.123C386.409 267.223 393.462 263.798 401.137 263.798C408.811 263.798 415.864 267.223 420.013 273.123L444.697 307.951C446.564 310.425 449.26 310.806 450.297 310.806C451.334 310.806 454.239 310.616 455.898 307.951L480.582 273.123C484.73 267.223 491.783 263.798 499.458 263.798C507.133 263.798 514.186 267.223 518.334 273.123L543.018 307.951C544.885 310.425 547.582 310.806 548.619 310.806C549.656 310.806 552.56 310.616 554.219 307.951L578.904 273.123C583.052 267.223 590.105 263.798 597.78 263.798C605.454 263.798 612.507 267.223 616.656 273.123L641.34 307.951C643.207 310.425 645.903 310.806 646.94 310.806C647.978 310.806 650.881 310.616 652.541 307.951L689.464 255.995C691.745 252.569 696.723 251.808 700.25 253.901C703.983 255.995 704.813 260.562 702.531 263.798L665.609 315.754C661.668 321.654 654.615 325.08 647.148 325.08Z" fill="#FFC805"/>
<path d="M647.148 388.265C639.473 388.265 632.42 384.839 628.272 378.94L603.588 344.112C601.721 341.638 599.024 341.257 597.987 341.257C596.95 341.257 594.046 341.447 592.386 344.112L567.702 378.94C563.554 384.839 556.501 388.265 548.826 388.265C541.151 388.265 534.099 384.839 529.95 378.94L505.266 344.112C503.399 341.638 500.703 341.257 499.666 341.257C498.628 341.257 495.724 341.447 494.065 344.112L469.381 378.94C465.232 384.839 458.18 388.265 450.505 388.265C442.83 388.265 435.777 384.839 431.629 378.94L406.944 344.112C405.078 341.638 402.381 341.257 401.344 341.257C400.307 341.257 397.403 341.447 395.743 344.112L371.059 378.94C366.911 384.839 359.858 388.265 352.183 388.265C344.508 388.265 337.456 384.839 333.307 378.94L308.623 344.112C306.756 341.638 304.06 341.257 303.022 341.257C301.985 341.257 299.081 341.447 297.422 344.112L272.738 378.94C268.589 384.839 261.537 388.265 253.862 388.265C246.187 388.265 239.134 384.839 234.986 378.94L210.302 344.112C208.435 341.638 205.738 341.257 204.701 341.257C203.664 341.257 200.76 341.447 199.1 344.112L174.416 378.94C170.268 384.839 163.215 388.265 155.54 388.265C147.865 388.265 140.813 384.839 136.664 378.94L111.98 344.112C110.113 341.638 107.416 341.257 106.379 341.257C105.342 341.257 102.438 341.447 100.779 344.112L76.0947 378.94C71.9461 384.839 64.8934 388.265 57.2185 388.265C49.5436 388.265 42.4911 384.839 38.3425 378.94L1.21257 326.793C-1.06915 323.367 -0.0319272 318.99 3.49437 316.896C7.2281 314.803 11.999 315.754 14.2807 318.99L51.2031 370.946C53.07 373.42 55.7666 373.801 56.8038 373.801C57.8409 373.801 60.7448 373.611 62.4043 370.946L87.0884 336.118C91.237 330.218 98.2895 326.793 105.964 326.793C113.639 326.793 120.692 330.218 124.841 336.118L149.525 370.946C151.391 373.42 154.088 373.801 155.125 373.801C156.162 373.801 159.066 373.611 160.726 370.946L185.41 336.118C189.559 330.218 196.611 326.793 204.286 326.793C211.961 326.793 219.013 330.218 223.162 336.118L247.846 370.946C249.713 373.42 252.41 373.801 253.447 373.801C254.484 373.801 257.388 373.611 259.047 370.946L283.732 336.118C287.88 330.218 294.933 326.793 302.608 326.793C310.282 326.793 317.335 330.218 321.484 336.118L346.168 370.946C348.035 373.42 350.731 373.801 351.768 373.801C352.805 373.801 355.71 373.611 357.369 370.946L382.053 336.118C386.201 330.218 393.254 326.793 400.929 326.793C408.604 326.793 415.657 330.218 419.805 336.118L444.489 370.946C446.356 373.42 449.053 373.801 450.09 373.801C451.127 373.801 454.031 373.611 455.69 370.946L480.374 336.118C484.523 330.218 491.576 326.793 499.251 326.793C506.925 326.793 513.978 330.218 518.127 336.118L542.811 370.946C544.678 373.42 547.374 373.801 548.411 373.801C549.449 373.801 552.352 373.611 554.012 370.946L578.696 336.118C582.845 330.218 589.897 326.793 597.572 326.793C605.247 326.793 612.3 330.218 616.448 336.118L641.132 370.946C642.999 373.42 645.696 373.801 646.733 373.801C647.77 373.801 650.674 373.611 652.333 370.946L689.256 318.99C691.538 315.564 696.516 314.803 700.042 316.896C703.776 318.99 704.606 323.557 702.324 326.793L665.402 378.749C661.668 384.649 654.615 388.265 647.148 388.265Z" fill="#FFC805"/>
<path d="M647.148 451.45C639.473 451.45 632.42 448.024 628.272 442.124L603.588 407.296C601.721 404.822 599.024 404.442 597.987 404.442C596.95 404.442 594.046 404.632 592.386 407.296L567.702 442.124C563.554 448.024 556.501 451.45 548.826 451.45C541.151 451.45 534.099 448.024 529.95 442.124L505.266 407.296C503.399 404.822 500.703 404.442 499.666 404.442C498.628 404.442 495.724 404.632 494.065 407.296L469.381 442.124C465.232 448.024 458.18 451.45 450.505 451.45C442.83 451.45 435.777 448.024 431.629 442.124L406.944 407.296C405.078 404.822 402.381 404.442 401.344 404.442C400.307 404.442 397.403 404.632 395.743 407.296L371.059 442.124C366.911 448.024 359.858 451.45 352.183 451.45C344.508 451.45 337.456 448.024 333.307 442.124L308.623 407.296C306.756 404.822 304.059 404.442 303.022 404.442C301.985 404.442 299.081 404.632 297.422 407.296L272.738 442.124C268.589 448.024 261.537 451.45 253.862 451.45C246.187 451.45 239.134 448.024 234.985 442.124L210.301 407.296C208.435 404.822 205.738 404.442 204.701 404.442C203.664 404.442 200.76 404.632 199.1 407.296L174.416 442.124C170.267 448.024 163.215 451.45 155.54 451.45C147.865 451.45 140.813 448.024 136.664 442.124L111.98 407.296C110.113 404.822 107.416 404.442 106.379 404.442C105.342 404.442 102.438 404.632 100.779 407.296L76.0946 442.124C71.946 448.024 64.8933 451.45 57.2184 451.45C49.5436 451.45 42.491 448.024 38.3424 442.124L1.42001 390.168C-0.861715 386.742 0.175381 382.365 3.70168 380.272C7.43541 378.178 12.2063 379.13 14.488 382.365L51.4104 434.321C53.2773 436.796 55.9739 437.176 57.0111 437.176C58.0482 437.176 60.9523 436.986 62.6117 434.321L87.2957 399.494C91.4443 393.594 98.497 390.168 106.172 390.168C113.847 390.168 120.899 393.594 125.048 399.494L149.732 434.321C151.599 436.796 154.296 437.176 155.333 437.176C156.37 437.176 159.274 436.986 160.933 434.321L185.617 399.494C189.766 393.594 196.818 390.168 204.493 390.168C212.168 390.168 219.221 393.594 223.369 399.494L248.054 434.321C249.92 436.796 252.617 437.176 253.654 437.176C254.691 437.176 257.595 436.986 259.255 434.321L283.939 399.494C288.088 393.594 295.14 390.168 302.815 390.168C310.49 390.168 317.542 393.594 321.691 399.494L346.375 434.321C348.242 436.796 350.938 437.176 351.976 437.176C353.013 437.176 355.917 436.986 357.576 434.321L382.261 399.494C386.409 393.594 393.462 390.168 401.137 390.168C408.811 390.168 415.864 393.594 420.013 399.494L444.697 434.321C446.564 436.796 449.26 437.176 450.297 437.176C451.334 437.176 454.239 436.986 455.898 434.321L480.582 399.494C484.73 393.594 491.783 390.168 499.458 390.168C507.133 390.168 514.186 393.594 518.334 399.494L543.018 434.321C544.885 436.796 547.582 437.176 548.619 437.176C549.656 437.176 552.56 436.986 554.219 434.321L578.904 399.494C583.052 393.594 590.105 390.168 597.78 390.168C605.454 390.168 612.507 393.594 616.656 399.494L641.34 434.321C643.207 436.796 645.903 437.176 646.94 437.176C647.978 437.176 650.881 436.986 652.541 434.321L689.464 382.365C691.745 378.939 696.723 378.178 700.25 380.272C703.983 382.365 704.813 386.933 702.531 390.168L665.609 442.124C661.668 447.834 654.615 451.45 647.148 451.45Z" fill="#FFC805"/>
<path d="M647.148 514.445C639.473 514.445 632.42 511.019 628.272 505.119L603.588 470.291C601.721 467.817 599.024 467.437 597.987 467.437C596.95 467.437 594.046 467.627 592.386 470.291L567.702 505.119C563.554 511.019 556.501 514.445 548.826 514.445C541.151 514.445 534.099 511.019 529.95 505.119L505.266 470.291C503.399 467.817 500.703 467.437 499.666 467.437C498.628 467.437 495.724 467.627 494.065 470.291L469.381 505.119C465.232 511.019 458.18 514.445 450.505 514.445C442.83 514.445 435.777 511.019 431.629 505.119L406.944 470.291C405.078 467.817 402.381 467.437 401.344 467.437C400.307 467.437 397.403 467.627 395.743 470.291L371.059 505.119C366.911 511.019 359.858 514.445 352.183 514.445C344.508 514.445 337.456 511.019 333.307 505.119L308.623 470.291C306.756 467.817 304.059 467.437 303.022 467.437C301.985 467.437 299.081 467.627 297.422 470.291L272.738 505.119C268.589 511.019 261.537 514.445 253.862 514.445C246.187 514.445 239.134 511.019 234.985 505.119L210.301 470.291C208.435 467.817 205.738 467.437 204.701 467.437C203.664 467.437 200.76 467.627 199.1 470.291L174.416 505.119C170.267 511.019 163.215 514.445 155.54 514.445C147.865 514.445 140.813 511.019 136.664 505.119L111.98 470.291C110.113 467.817 107.416 467.437 106.379 467.437C105.342 467.437 102.438 467.627 100.779 470.291L76.0946 505.119C71.946 511.019 64.8933 514.445 57.2184 514.445C49.5436 514.445 42.491 511.019 38.3424 505.119L1.42001 453.163C-0.861715 449.737 0.175381 445.36 3.70168 443.266C7.43541 441.173 12.2063 442.125 14.488 445.36L51.4104 497.316C53.2773 499.79 55.9739 500.171 57.0111 500.171C58.0482 500.171 60.9523 499.981 62.6117 497.316L87.2957 462.488C91.4443 456.589 98.497 453.163 106.172 453.163C113.847 453.163 120.899 456.589 125.048 462.488L149.732 497.316C151.599 499.79 154.296 500.171 155.333 500.171C156.37 500.171 159.274 499.981 160.933 497.316L185.617 462.488C189.766 456.589 196.818 453.163 204.493 453.163C212.168 453.163 219.221 456.589 223.369 462.488L248.054 497.316C249.92 499.79 252.617 500.171 253.654 500.171C254.691 500.171 257.595 499.981 259.255 497.316L283.939 462.488C288.088 456.589 295.14 453.163 302.815 453.163C310.49 453.163 317.542 456.589 321.691 462.488L346.375 497.316C348.242 499.79 350.938 500.171 351.976 500.171C353.013 500.171 355.917 499.981 357.576 497.316L382.261 462.488C386.409 456.589 393.462 453.163 401.137 453.163C408.811 453.163 415.864 456.589 420.013 462.488L444.697 497.316C446.564 499.79 449.26 500.171 450.297 500.171C451.334 500.171 454.239 499.981 455.898 497.316L480.582 462.488C484.73 456.589 491.783 453.163 499.458 453.163C507.133 453.163 514.186 456.589 518.334 462.488L543.018 497.316C544.885 499.79 547.582 500.171 548.619 500.171C549.656 500.171 552.56 499.981 554.219 497.316L578.904 462.488C583.052 456.589 590.105 453.163 597.78 453.163C605.454 453.163 612.507 456.589 616.656 462.488L641.34 497.316C643.207 499.79 645.903 500.171 646.94 500.171C647.978 500.171 650.881 499.981 652.541 497.316L689.464 445.36C691.745 441.934 696.723 441.173 700.25 443.266C703.983 445.36 704.813 449.928 702.531 453.163L665.609 505.119C661.668 511.019 654.615 514.445 647.148 514.445Z" fill="#FFC805"/>
</g>
</g>
<defs>
<clipPath id="clip0">
<rect width="590" height="488" fill="white"/>
</clipPath>
<clipPath id="clip1">
<rect width="590" height="704" fill="white"/>
</clipPath>
</defs>
</svg>
