<svg width="12" height="12" fill="none" xmlns="http://www.w3.org/2000/svg"><path d="M3.529 5.834a8.44 8.44 0 012.308 1.843c.02.023.044.041.073.054a.229.229 0 00.184 0 .203.203 0 00.073-.054A8.457 8.457 0 018.47 5.832a.388.388 0 00.149-.142.333.333 0 00.046-.189C8.563 3.716 7.716 2.03 6.29.77a.455.455 0 00-.291-.103.455.455 0 00-.292.103c-1.425 1.262-2.27 2.949-2.373 4.733a.332.332 0 00.046.19.387.387 0 00.149.141zm.664 6.15a.3.3 0 00.29-.053.357.357 0 00.1-.126.396.396 0 00.038-.162 8.776 8.776 0 01.679-3.02.399.399 0 00-.024-.366A6.21 6.21 0 003.134 6.11a5.504 5.504 0 00-2.803-.777.315.315 0 00-.234.107.386.386 0 00-.097.258 7.063 7.063 0 001.163 3.903c.755 1.13 1.816 1.965 3.03 2.382zm3.614 0a.3.3 0 01-.29-.053.357.357 0 01-.1-.126.396.396 0 01-.038-.162 8.776 8.776 0 00-.679-3.02.399.399 0 01.024-.366A6.21 6.21 0 018.866 6.11a5.504 5.504 0 012.803-.777c.088 0 .172.038.234.107a.386.386 0 01.097.258 7.064 7.064 0 01-1.163 3.903c-.755 1.13-1.816 1.965-3.03 2.382z" fill="#39B38E"/></svg>