<svg width="24" height="24" fill="none" xmlns="http://www.w3.org/2000/svg"><path d="M8.5 22c1.932 0 3.5-1.568 3.5-3.5V15H8.5A3.501 3.501 0 005 18.5C5 20.432 6.568 22 8.5 22zM5 12c0-1.656 1.568-3 3.5-3H12v6H8.5C6.568 15 5 13.656 5 12zm0-6.5C5 3.568 6.568 2 8.5 2H12v7H8.5A3.501 3.501 0 015 5.5zM12 2h3.5C17.432 2 19 3.568 19 5.5S17.432 9 15.5 9H12V2zm7 10c0 1.656-1.568 3-3.5 3S12 13.656 12 12s1.568-3 3.5-3 3.5 1.344 3.5 3z" stroke="#2B2F51" stroke-width="1.5" stroke-linecap="round" stroke-linejoin="round"/></svg>