<svg width="24" height="24" fill="none" xmlns="http://www.w3.org/2000/svg"><path d="M13.444 16.737H21m-17 0h3.778" stroke="#2B2F51" stroke-width="1.5" stroke-linecap="round" stroke-linejoin="round"/><path clip-rule="evenodd" d="M13.444 16.737a2.838 2.838 0 01-2.832 2.842 2.838 2.838 0 01-2.834-2.841 2.838 2.838 0 012.832-2.843 2.83 2.83 0 012.004.832c.532.533.83 1.256.83 2.01v0z" stroke="#2B2F51" stroke-width="1.5" stroke-linecap="round" stroke-linejoin="round"/><path d="M15.333 7.263H4" stroke="#2B2F51" stroke-width="1.5" stroke-linecap="round" stroke-linejoin="round"/><path clip-rule="evenodd" d="M21 7.263a2.838 2.838 0 00-2.833-2.842 2.838 2.838 0 00-2.834 2.841 2.838 2.838 0 002.832 2.843A2.839 2.839 0 0021 7.263z" stroke="#2B2F51" stroke-width="1.5" stroke-linecap="round" stroke-linejoin="round"/></svg>