<svg width="26" height="24" fill="none" xmlns="http://www.w3.org/2000/svg"><path d="M24.738 2.607a1.105 1.105 0 00-.202-.485 1.016 1.016 0 00-.396-.322.954.954 0 00-.962.1 12.824 12.824 0 01-7.662 2.071c-6.18 0-8.758 2.677-8.807 2.739-1.446 1.132-2.494 2.745-2.978 4.582a9.065 9.065 0 00.304 5.56.562.562 0 01-.1.567l-2.668 3.07a1.108 1.108 0 00-.267.728c0 .27.097.53.27.727a.98.98 0 00.662.339.967.967 0 00.702-.23C4.35 20.396 7.15 15.4 15.02 11.906a.952.952 0 01.767.002c.245.109.44.315.543.576.102.26.104.553.004.815-.1.261-.293.47-.537.581a26.224 26.224 0 00-8.431 5.889l-.01.01-.231.267a.563.563 0 00-.057.653c.04.067.093.123.157.165a7.666 7.666 0 004.262 1.3 11.666 11.666 0 005.784-1.672v0c8.77-5.127 7.931-14.986 7.468-17.885z" stroke="#2B2F51" stroke-width="1.5" stroke-linecap="round" stroke-linejoin="round"/></svg>