<svg width="24" height="24" viewBox="0 0 24 24" fill="none" xmlns="http://www.w3.org/2000/svg">
<path d="M8.26669 15.7322L15.7333 8.26553" stroke="#2B2F51" stroke-width="1.5" stroke-linecap="round" stroke-linejoin="round"/>
<path d="M8.96713 12.0145C8.51984 11.9887 8.07216 12.0578 7.65342 12.2171C7.23467 12.3764 6.85432 12.6224 6.53727 12.9389L4.93728 14.5389C4.33716 15.1391 4.00002 15.953 4.00002 16.8017C4.00002 17.2219 4.08279 17.638 4.2436 18.0263C4.40442 18.4145 4.64013 18.7673 4.93728 19.0644C5.23442 19.3616 5.58719 19.5973 5.97543 19.7581C6.36368 19.9189 6.77979 20.0017 7.20002 20.0017C8.04872 20.0017 8.86265 19.6646 9.46277 19.0644L11.0628 17.4644C11.3793 17.1474 11.6253 16.767 11.7846 16.3483C11.9439 15.9295 12.013 15.4819 11.9872 15.0346" stroke="#2B2F51" stroke-width="1.5" stroke-linecap="round" stroke-linejoin="round"/>
<path d="M15.0329 11.9825C15.4802 12.0082 15.9278 11.9392 16.3466 11.7799C16.7653 11.6206 17.1457 11.3746 17.4627 11.0581L19.0627 9.45806C19.6629 8.85795 20 8.04401 20 7.19532C20 6.34662 19.6629 5.53269 19.0627 4.93257C18.4626 4.33245 17.6487 3.99531 16.8 3.99531C15.9513 3.99531 15.1374 4.33245 14.5372 4.93257L12.9373 6.53256C12.6214 6.84999 12.3762 7.2305 12.2175 7.64921C12.0588 8.06792 11.9903 8.51541 12.0164 8.96242" stroke="#2B2F51" stroke-width="1.5" stroke-linecap="round" stroke-linejoin="round"/>
</svg>
