<svg width="24" height="24" fill="none" xmlns="http://www.w3.org/2000/svg"><path d="M8.293 11.751a12.659 12.659 0 013.462 2.765.304.304 0 00.11.08.342.342 0 00.385-.08 12.683 12.683 0 013.456-2.768.583.583 0 00.223-.212.498.498 0 00.07-.284c-.154-2.677-1.425-5.207-3.565-7.097A.682.682 0 0011.996 4a.682.682 0 00-.437.155C9.424 6.048 8.156 8.578 8 11.255a.499.499 0 00.07.284c.05.087.127.16.222.212zm.996 9.224a.451.451 0 00.436-.078.537.537 0 00.15-.19.594.594 0 00.057-.242c.07-1.57.416-3.109 1.018-4.532a.597.597 0 00-.036-.548c-.815-1.349-1.918-2.455-3.212-3.22A8.256 8.256 0 003.496 11a.473.473 0 00-.35.16.579.579 0 00-.146.388c.002 2.107.614 4.159 1.745 5.855 1.131 1.696 2.723 2.947 4.544 3.572zm5.422 0a.45.45 0 01-.436-.078.536.536 0 01-.15-.19.593.593 0 01-.056-.242 13.164 13.164 0 00-1.019-4.532.597.597 0 01.036-.548c.815-1.349 1.918-2.455 3.212-3.22A8.256 8.256 0 0120.504 11c.132 0 .258.058.35.16a.579.579 0 01.146.388c-.002 2.107-.614 4.159-1.745 5.855-1.131 1.696-2.723 2.947-4.544 3.572z" fill="#2B2F51"/></svg>