<svg width="24" height="24" fill="none" xmlns="http://www.w3.org/2000/svg"><g clip-path="url(#clip0)" stroke="#2B2F51" stroke-width="1.5" stroke-linecap="round" stroke-linejoin="round"><path d="M15.011 6.35c0 3.083-3.006 5.583-3.006 5.583S9 9.433 9 6.35 12.005.766 12.005.766s3.006 2.5 3.006 5.584zm5.176 13.85C17.079 23.313 12 23.266 12 23.266s-.047-5.084 3.061-8.192c3.108-3.108 8.192-3.06 8.192-3.06s.041 5.086-3.066 8.186z"/><path d="M3.808 20.2C6.916 23.313 12 23.266 12 23.266s.047-5.084-3.061-8.192c-3.108-3.108-8.191-3.06-8.191-3.06S.7 17.1 3.808 20.2zm8.197-8.267v11.333"/></g><defs><clipPath id="clip0"><path fill="#fff" d="M0 0h24v24H0z"/></clipPath></defs></svg>