<svg width="64" height="56" fill="none" xmlns="http://www.w3.org/2000/svg"><path fill-rule="evenodd" clip-rule="evenodd" d="M64 27.6v10.257c0 11.748-2.06 14.918-9.03 16.784-2.535.559-15.049.559-22.97.559-7.921 0-20.436 0-22.97-.56C2.059 52.776 0 49.606 0 37.858V17.343C0 5.595 2.059 2.425 9.03.559 11.564 0 24.079 0 32 0c7.921 0 20.435 0 22.97.56C61.94 2.424 64 5.594 64 17.342V27.6z" fill="#000" fill-opacity=".6"/><path fill-rule="evenodd" clip-rule="evenodd" d="M23 17.25v20.735l17.282-10.278L23.001 17.25z" fill="#fff"/><path fill-rule="evenodd" clip-rule="evenodd" d="M38.413 28.97l1.87-1.262L23 17.25l15.413 11.72z" fill="#CCC"/></svg>