<svg width="80" height="49" fill="none" xmlns="http://www.w3.org/2000/svg"><path d="M6.447 47.777V6.42H0v41.357h6.447zm46.913 0V18.125h-6.39v29.652h6.39zm20.08-36.062c1.346 0 2.86.501 4.093 1.393L80 8.203c-1.906-1.393-4.317-2.062-6.727-2.062-5.158 0-10.26 3.288-10.26 10.2v2.898H59.09v4.794h3.924v23.744h6.391V24.033h7.793v-4.794h-7.793v-3.511c0-2.787 1.85-4.013 4.037-4.013z" fill="#fff"/><path d="M58.836.564a.7.7 0 00-.126-.306.637.637 0 00-.248-.204.59.59 0 00-.6.063 7.949 7.949 0 01-4.79 1.31c-3.861 0-5.474 1.691-5.504 1.73a5.432 5.432 0 00-1.861 2.896 5.789 5.789 0 00.19 3.513.36.36 0 01-.062.359l-1.668 1.94a.705.705 0 00-.167.46c0 .17.06.334.168.46a.6.6 0 00.853.069c1.073-1.048 2.822-4.205 7.741-6.414a.59.59 0 01.48.002c.153.068.275.2.339.364.064.164.064.35.002.515a.656.656 0 01-.335.367 16.387 16.387 0 00-5.27 3.722l-.006.006-.145.169a.358.358 0 00-.036.413.324.324 0 00.099.103 4.753 4.753 0 002.664.822 7.233 7.233 0 003.615-1.057c5.481-3.24 4.957-9.47 4.667-11.302z" fill="#77E8C6"/><path d="M19.734 19.704c-7.615 4.524-9.915 12.912-5.38 20.655 4.507 7.696 12.802 9.879 20.735 5.233 4.451-2.607 7.198-6.347 8.108-10.562l-4.782-1.398c-.76 3.029-2.704 5.589-5.51 7.232-4.063 2.38-8.548 1.711-11.728-1.723l19.447-11.388c-4.73-9.632-11.843-13.347-20.89-8.049zm-1.02 15.454C16.95 30.7 18.31 26.48 22.374 24.1c4.209-2.465 8.431-1.579 11.047 2.444l-14.707 8.613z" fill="#fff"/></svg>