<svg width="590" height="488" fill="none" xmlns="http://www.w3.org/2000/svg"><g clip-path="url(#clip0)"><g clip-path="url(#clip1)" fill="#FFC805"><path d="M647.143 72.34c-7.674 0-14.727-3.426-18.875-9.326l-24.685-34.828c-1.867-2.474-4.563-2.855-5.6-2.855s-3.941.19-5.601 2.855l-24.684 34.828c-4.149 5.9-11.201 9.325-18.876 9.325-7.675 0-14.728-3.425-18.876-9.325l-24.684-34.828c-1.867-2.474-4.564-2.855-5.601-2.855s-3.941.19-5.6 2.855l-24.684 34.828c-4.149 5.9-11.202 9.325-18.877 9.325-7.675 0-14.727-3.425-18.876-9.325L406.94 28.186c-1.867-2.474-4.563-2.855-5.6-2.855s-3.941.19-5.601 2.855l-24.684 34.828c-4.149 5.9-11.201 9.325-18.876 9.325-7.675 0-14.728-3.425-18.876-9.325l-24.684-34.828c-1.867-2.474-4.564-2.855-5.601-2.855s-3.941.19-5.6 2.855l-24.685 34.828c-4.148 5.9-11.201 9.325-18.876 9.325-7.674 0-14.727-3.425-18.876-9.325l-24.684-34.828c-1.867-2.474-4.563-2.855-5.6-2.855s-3.942.19-5.601 2.855l-24.684 34.828c-4.149 5.9-11.201 9.325-18.876 9.325-7.675 0-14.728-3.425-18.876-9.325l-24.684-34.828c-1.867-2.474-4.564-2.855-5.601-2.855s-3.941.19-5.601 2.855L76.09 63.014c-4.148 5.9-11.2 9.325-18.876 9.325-7.675 0-14.727-3.425-18.876-9.325L1.416 11.057C-.866 7.632.17 3.254 3.698 1.161 7.43-.933 12.202.019 14.484 3.254l36.922 51.957c1.867 2.474 4.564 2.855 5.6 2.855 1.038 0 3.942-.19 5.602-2.855l24.684-34.828c4.148-5.9 11.2-9.326 18.876-9.326 7.675 0 14.727 3.426 18.876 9.326l24.684 34.828c1.867 2.474 4.563 2.855 5.6 2.855 1.038 0 3.942-.19 5.601-2.855l24.684-34.828c4.149-5.9 11.201-9.326 18.876-9.326 7.675 0 14.728 3.426 18.876 9.326l24.684 34.828c1.867 2.474 4.564 2.855 5.601 2.855s3.941-.19 5.601-2.855l24.684-34.828c4.148-5.9 11.201-9.326 18.876-9.326 7.675 0 14.727 3.426 18.876 9.326l24.684 34.828c1.867 2.474 4.563 2.855 5.6 2.855 1.038 0 3.942-.19 5.601-2.855l24.684-34.828c4.149-5.9 11.201-9.326 18.876-9.326 7.675 0 14.728 3.426 18.876 9.326l24.685 34.828c1.866 2.474 4.563 2.855 5.6 2.855s3.941-.19 5.601-2.855l24.684-34.828c4.148-5.9 11.201-9.326 18.876-9.326 7.675 0 14.727 3.426 18.876 9.326l24.684 34.828c1.867 2.474 4.563 2.855 5.601 2.855 1.037 0 3.941-.19 5.6-2.855l24.684-34.828c4.149-5.9 11.201-9.326 18.876-9.326 7.675 0 14.728 3.426 18.876 9.326l24.684 34.828c1.867 2.474 4.564 2.855 5.601 2.855s3.941-.19 5.601-2.855l37.13-51.957c2.281-3.425 7.259-4.187 10.786-2.093 3.734 2.093 4.563 6.661 2.282 9.896l-36.923 51.957c-4.148 5.9-11.201 9.325-18.669 9.325z"/><path d="M647.148 135.525c-7.675 0-14.728-3.426-18.876-9.326l-24.684-34.828c-1.867-2.474-4.564-2.855-5.601-2.855s-3.941.19-5.601 2.855L567.702 126.2c-4.148 5.9-11.201 9.326-18.876 9.326-7.675 0-14.727-3.426-18.876-9.326l-24.684-34.828c-1.867-2.474-4.563-2.855-5.6-2.855-1.038 0-3.942.19-5.601 2.855L469.381 126.2c-4.149 5.9-11.201 9.326-18.876 9.326-7.675 0-14.728-3.426-18.876-9.326l-24.685-34.828c-1.866-2.474-4.563-2.855-5.6-2.855s-3.941.19-5.601 2.855L371.059 126.2c-4.148 5.9-11.201 9.326-18.876 9.326-7.675 0-14.727-3.426-18.876-9.326l-24.684-34.828c-1.867-2.474-4.564-2.855-5.601-2.855s-3.941.19-5.6 2.855L272.738 126.2c-4.149 5.9-11.201 9.326-18.876 9.326-7.675 0-14.728-3.426-18.877-9.326l-24.684-34.828c-1.866-2.474-4.563-2.855-5.6-2.855s-3.941.19-5.601 2.855L174.416 126.2c-4.149 5.9-11.201 9.326-18.876 9.326-7.675 0-14.727-3.426-18.876-9.326L111.98 91.371c-1.867-2.474-4.564-2.855-5.601-2.855s-3.941.19-5.6 2.855L76.095 126.2c-4.149 5.9-11.202 9.326-18.877 9.326-7.674 0-14.727-3.426-18.876-9.326L1.42 74.243C-.862 70.817.175 66.44 3.702 64.346c3.733-2.093 8.504-1.142 10.786 2.094l36.922 51.956c1.867 2.474 4.564 2.855 5.601 2.855s3.941-.191 5.6-2.855l24.685-34.828c4.148-5.9 11.201-9.325 18.876-9.325 7.675 0 14.727 3.425 18.876 9.325l24.684 34.828c1.867 2.474 4.564 2.855 5.601 2.855s3.941-.191 5.6-2.855l24.684-34.828c4.149-5.9 11.201-9.325 18.876-9.325 7.675 0 14.728 3.425 18.876 9.325l24.685 34.828c1.866 2.474 4.563 2.855 5.6 2.855s3.941-.191 5.601-2.855l24.684-34.828c4.149-5.9 11.201-9.325 18.876-9.325 7.675 0 14.727 3.425 18.876 9.325l24.684 34.828c1.867 2.474 4.563 2.855 5.601 2.855 1.037 0 3.941-.191 5.6-2.855l24.685-34.828c4.148-5.9 11.201-9.325 18.876-9.325 7.674 0 14.727 3.425 18.876 9.325l24.684 34.828c1.867 2.474 4.563 2.855 5.6 2.855s3.942-.191 5.601-2.855l24.684-34.828c4.148-5.9 11.201-9.325 18.876-9.325 7.675 0 14.728 3.425 18.876 9.325l24.684 34.828c1.867 2.474 4.564 2.855 5.601 2.855s3.941-.191 5.6-2.855l24.685-34.828c4.148-5.9 11.201-9.325 18.876-9.325 7.674 0 14.727 3.425 18.876 9.325l24.684 34.828c1.867 2.474 4.563 2.855 5.6 2.855 1.038 0 3.941-.191 5.601-2.855l36.923-51.956c2.281-3.426 7.259-4.187 10.786-2.094 3.733 2.094 4.563 6.661 2.281 9.897l-36.922 51.956c-3.941 5.9-10.994 9.326-18.461 9.326z"/><path d="M647.148 198.71c-7.675 0-14.728-3.426-18.876-9.326l-24.684-34.828c-1.867-2.474-4.564-2.854-5.601-2.854s-3.941.19-5.601 2.854l-24.684 34.828c-4.148 5.9-11.201 9.326-18.876 9.326-7.675 0-14.727-3.426-18.876-9.326l-24.684-34.828c-1.867-2.474-4.563-2.854-5.6-2.854-1.038 0-3.942.19-5.601 2.854l-24.684 34.828c-4.149 5.9-11.201 9.326-18.876 9.326-7.675 0-14.728-3.426-18.876-9.326l-24.685-34.828c-1.866-2.474-4.563-2.854-5.6-2.854s-3.941.19-5.601 2.854l-24.684 34.828c-4.148 5.9-11.201 9.326-18.876 9.326-7.675 0-14.727-3.426-18.876-9.326l-24.684-34.828c-1.867-2.474-4.564-2.854-5.601-2.854s-3.941.19-5.6 2.854l-24.684 34.828c-4.149 5.9-11.201 9.326-18.876 9.326-7.675 0-14.728-3.426-18.877-9.326l-24.684-34.828c-1.866-2.474-4.563-2.854-5.6-2.854s-3.941.19-5.601 2.854l-24.684 34.828c-4.149 5.9-11.201 9.326-18.876 9.326-7.675 0-14.727-3.426-18.876-9.326l-24.684-34.828c-1.867-2.474-4.564-2.854-5.601-2.854s-3.941.19-5.6 2.854l-24.684 34.828c-4.149 5.9-11.202 9.326-18.877 9.326-7.674 0-14.727-3.426-18.876-9.326L1.42 137.428c-2.282-3.426-1.245-7.803 2.282-9.897 3.733-2.093 8.504-1.142 10.786 2.094l36.922 51.956c1.867 2.474 4.564 2.855 5.601 2.855s3.941-.19 5.6-2.855l24.685-34.828c4.148-5.9 11.201-9.325 18.876-9.325 7.675 0 14.727 3.425 18.876 9.325l24.684 34.828c1.867 2.474 4.564 2.855 5.601 2.855s3.941-.19 5.6-2.855l24.684-34.828c4.149-5.9 11.201-9.325 18.876-9.325 7.675 0 14.728 3.425 18.876 9.325l24.685 34.828c1.866 2.474 4.563 2.855 5.6 2.855s3.941-.19 5.601-2.855l24.684-34.828c4.149-5.9 11.201-9.325 18.876-9.325 7.675 0 14.727 3.425 18.876 9.325l24.684 34.828c1.867 2.474 4.563 2.855 5.601 2.855 1.037 0 3.941-.19 5.6-2.855l24.685-34.828c4.148-5.9 11.201-9.325 18.876-9.325 7.674 0 14.727 3.425 18.876 9.325l24.684 34.828c1.867 2.474 4.563 2.855 5.6 2.855s3.942-.19 5.601-2.855l24.684-34.828c4.148-5.9 11.201-9.325 18.876-9.325 7.675 0 14.728 3.425 18.876 9.325l24.684 34.828c1.867 2.474 4.564 2.855 5.601 2.855s3.941-.19 5.6-2.855l24.685-34.828c4.148-5.9 11.201-9.325 18.876-9.325 7.674 0 14.727 3.425 18.876 9.325l24.684 34.828c1.867 2.474 4.563 2.855 5.6 2.855 1.038 0 3.941-.19 5.601-2.855l36.923-51.956c2.281-3.426 7.259-4.187 10.786-2.094 3.733 2.094 4.563 6.661 2.281 9.897l-36.922 51.956c-3.941 5.9-10.994 9.326-18.461 9.326z"/><path d="M647.148 261.895c-7.675 0-14.728-3.426-18.876-9.326l-24.684-34.828c-1.867-2.474-4.564-2.855-5.601-2.855s-3.941.191-5.601 2.855l-24.684 34.828c-4.148 5.9-11.201 9.326-18.876 9.326-7.675 0-14.727-3.426-18.876-9.326l-24.684-34.828c-1.867-2.474-4.563-2.855-5.6-2.855-1.038 0-3.942.191-5.601 2.855l-24.684 34.828c-4.149 5.9-11.201 9.326-18.876 9.326-7.675 0-14.728-3.426-18.876-9.326l-24.685-34.828c-1.866-2.474-4.563-2.855-5.6-2.855s-3.941.191-5.601 2.855l-24.684 34.828c-4.148 5.9-11.201 9.326-18.876 9.326-7.675 0-14.727-3.426-18.876-9.326l-24.684-34.828c-1.867-2.474-4.563-2.855-5.601-2.855-1.037 0-3.941.191-5.6 2.855l-24.684 34.828c-4.149 5.9-11.201 9.326-18.876 9.326-7.675 0-14.728-3.426-18.876-9.326l-24.684-34.828c-1.867-2.474-4.564-2.855-5.601-2.855s-3.941.191-5.601 2.855l-24.891 34.828c-4.149 5.9-11.201 9.326-18.876 9.326-7.675 0-14.728-3.426-18.876-9.326l-24.684-34.828c-1.867-2.474-4.564-2.855-5.601-2.855s-3.941.191-5.601 2.855l-24.684 34.828c-4.148 5.9-11.201 9.326-18.876 9.326-7.675 0-14.727-3.426-18.876-9.326L1.213 200.613c-2.282-3.426-1.245-7.803 2.281-9.897 3.734-2.093 8.505-1.142 10.787 2.094l36.922 51.956c1.867 2.474 4.564 2.855 5.6 2.855 1.038 0 3.942-.191 5.601-2.855l24.684-34.828c4.149-5.9 11.202-9.325 18.876-9.325 7.675 0 14.728 3.425 18.877 9.325l24.684 34.828c1.866 2.474 4.563 2.855 5.6 2.855s3.941-.191 5.601-2.855l24.684-34.828c4.149-5.9 11.201-9.325 18.876-9.325 7.675 0 14.727 3.425 18.876 9.325l24.684 34.828c1.867 2.474 4.564 2.855 5.601 2.855s3.941-.191 5.6-2.855l24.685-34.828c4.148-5.9 11.201-9.325 18.876-9.325 7.674 0 14.727 3.425 18.876 9.325l24.684 34.828c1.867 2.474 4.563 2.855 5.6 2.855s3.942-.191 5.601-2.855l24.684-34.828c4.148-5.9 11.201-9.325 18.876-9.325 7.675 0 14.728 3.425 18.876 9.325l24.684 34.828c1.867 2.474 4.564 2.855 5.601 2.855s3.941-.191 5.6-2.855l24.684-34.828c4.149-5.9 11.202-9.325 18.877-9.325 7.674 0 14.727 3.425 18.876 9.325l24.684 34.828c1.867 2.474 4.563 2.855 5.6 2.855 1.038 0 3.941-.191 5.601-2.855l24.684-34.828c4.149-5.9 11.201-9.325 18.876-9.325 7.675 0 14.728 3.425 18.876 9.325l24.684 34.828c1.867 2.474 4.564 2.855 5.601 2.855s3.941-.191 5.6-2.855l36.923-51.956c2.282-3.426 7.26-4.187 10.786-2.094 3.734 2.094 4.564 6.661 2.282 9.897l-36.922 51.956c-3.734 5.9-10.787 9.326-18.254 9.326z"/><path d="M647.148 325.08c-7.675 0-14.728-3.426-18.876-9.326l-24.684-34.828c-1.867-2.474-4.564-2.854-5.601-2.854s-3.941.19-5.601 2.854l-24.684 34.828c-4.148 5.9-11.201 9.326-18.876 9.326-7.675 0-14.727-3.426-18.876-9.326l-24.684-34.828c-1.867-2.474-4.563-2.854-5.6-2.854-1.038 0-3.942.19-5.601 2.854l-24.684 34.828c-4.149 5.9-11.201 9.326-18.876 9.326-7.675 0-14.728-3.426-18.876-9.326l-24.685-34.828c-1.866-2.474-4.563-2.854-5.6-2.854s-3.941.19-5.601 2.854l-24.684 34.828c-4.148 5.9-11.201 9.326-18.876 9.326-7.675 0-14.727-3.426-18.876-9.326l-24.684-34.828c-1.867-2.474-4.564-2.854-5.601-2.854s-3.941.19-5.6 2.854l-24.684 34.828c-4.149 5.9-11.201 9.326-18.876 9.326-7.675 0-14.728-3.426-18.877-9.326l-24.684-34.828c-1.866-2.474-4.563-2.854-5.6-2.854s-3.941.19-5.601 2.854l-24.684 34.828c-4.149 5.9-11.201 9.326-18.876 9.326-7.675 0-14.727-3.426-18.876-9.326l-24.684-34.828c-1.867-2.474-4.564-2.854-5.601-2.854s-3.941.19-5.6 2.854l-24.684 34.828c-4.149 5.9-11.202 9.326-18.877 9.326-7.674 0-14.727-3.426-18.876-9.326L1.42 263.798c-2.282-3.426-1.245-7.803 2.282-9.897 3.733-2.093 8.504-1.142 10.786 2.094l36.922 51.956c1.867 2.474 4.564 2.855 5.601 2.855s3.941-.19 5.6-2.855l24.685-34.828c4.148-5.9 11.201-9.325 18.876-9.325 7.675 0 14.727 3.425 18.876 9.325l24.684 34.828c1.867 2.474 4.564 2.855 5.601 2.855s3.941-.19 5.6-2.855l24.684-34.828c4.149-5.9 11.201-9.325 18.876-9.325 7.675 0 14.728 3.425 18.876 9.325l24.685 34.828c1.866 2.474 4.563 2.855 5.6 2.855s3.941-.19 5.601-2.855l24.684-34.828c4.149-5.9 11.201-9.325 18.876-9.325 7.675 0 14.727 3.425 18.876 9.325l24.684 34.828c1.867 2.474 4.563 2.855 5.601 2.855 1.037 0 3.941-.19 5.6-2.855l24.685-34.828c4.148-5.9 11.201-9.325 18.876-9.325 7.674 0 14.727 3.425 18.876 9.325l24.684 34.828c1.867 2.474 4.563 2.855 5.6 2.855s3.942-.19 5.601-2.855l24.684-34.828c4.148-5.9 11.201-9.325 18.876-9.325 7.675 0 14.728 3.425 18.876 9.325l24.684 34.828c1.867 2.474 4.564 2.855 5.601 2.855s3.941-.19 5.6-2.855l24.685-34.828c4.148-5.9 11.201-9.325 18.876-9.325 7.674 0 14.727 3.425 18.876 9.325l24.684 34.828c1.867 2.474 4.563 2.855 5.6 2.855 1.038 0 3.941-.19 5.601-2.855l36.923-51.956c2.281-3.426 7.259-4.187 10.786-2.094 3.733 2.094 4.563 6.661 2.281 9.897l-36.922 51.956c-3.941 5.9-10.994 9.326-18.461 9.326z"/><path d="M647.148 388.265c-7.675 0-14.728-3.426-18.876-9.325l-24.684-34.828c-1.867-2.474-4.564-2.855-5.601-2.855s-3.941.19-5.601 2.855l-24.684 34.828c-4.148 5.899-11.201 9.325-18.876 9.325-7.675 0-14.727-3.426-18.876-9.325l-24.684-34.828c-1.867-2.474-4.563-2.855-5.6-2.855-1.038 0-3.942.19-5.601 2.855l-24.684 34.828c-4.149 5.899-11.201 9.325-18.876 9.325-7.675 0-14.728-3.426-18.876-9.325l-24.685-34.828c-1.866-2.474-4.563-2.855-5.6-2.855s-3.941.19-5.601 2.855l-24.684 34.828c-4.148 5.899-11.201 9.325-18.876 9.325-7.675 0-14.727-3.426-18.876-9.325l-24.684-34.828c-1.867-2.474-4.563-2.855-5.601-2.855-1.037 0-3.941.19-5.6 2.855l-24.684 34.828c-4.149 5.899-11.201 9.325-18.876 9.325-7.675 0-14.728-3.426-18.876-9.325l-24.684-34.828c-1.867-2.474-4.564-2.855-5.601-2.855s-3.941.19-5.601 2.855l-24.684 34.828c-4.148 5.899-11.201 9.325-18.876 9.325-7.675 0-14.727-3.426-18.876-9.325l-24.684-34.828c-1.867-2.474-4.564-2.855-5.601-2.855s-3.941.19-5.6 2.855L76.095 378.94c-4.149 5.899-11.202 9.325-18.877 9.325-7.674 0-14.727-3.426-18.876-9.325l-37.13-52.147c-2.281-3.426-1.244-7.803 2.282-9.897 3.734-2.093 8.505-1.142 10.787 2.094l36.922 51.956c1.867 2.474 4.564 2.855 5.6 2.855 1.038 0 3.942-.19 5.601-2.855l24.684-34.828c4.149-5.9 11.202-9.325 18.876-9.325 7.675 0 14.728 3.425 18.877 9.325l24.684 34.828c1.866 2.474 4.563 2.855 5.6 2.855s3.941-.19 5.601-2.855l24.684-34.828c4.149-5.9 11.201-9.325 18.876-9.325 7.675 0 14.727 3.425 18.876 9.325l24.684 34.828c1.867 2.474 4.564 2.855 5.601 2.855s3.941-.19 5.6-2.855l24.685-34.828c4.148-5.9 11.201-9.325 18.876-9.325 7.674 0 14.727 3.425 18.876 9.325l24.684 34.828c1.867 2.474 4.563 2.855 5.6 2.855s3.942-.19 5.601-2.855l24.684-34.828c4.148-5.9 11.201-9.325 18.876-9.325 7.675 0 14.728 3.425 18.876 9.325l24.684 34.828c1.867 2.474 4.564 2.855 5.601 2.855s3.941-.19 5.6-2.855l24.684-34.828c4.149-5.9 11.202-9.325 18.877-9.325 7.674 0 14.727 3.425 18.876 9.325l24.684 34.828c1.867 2.474 4.563 2.855 5.6 2.855 1.038 0 3.941-.19 5.601-2.855l24.684-34.828c4.149-5.9 11.201-9.325 18.876-9.325 7.675 0 14.728 3.425 18.876 9.325l24.684 34.828c1.867 2.474 4.564 2.855 5.601 2.855s3.941-.19 5.6-2.855l36.923-51.956c2.282-3.426 7.26-4.187 10.786-2.094 3.734 2.094 4.564 6.661 2.282 9.897l-36.922 51.956c-3.734 5.9-10.787 9.516-18.254 9.516z"/><path d="M647.148 451.45c-7.675 0-14.728-3.426-18.876-9.326l-24.684-34.828c-1.867-2.474-4.564-2.854-5.601-2.854s-3.941.19-5.601 2.854l-24.684 34.828c-4.148 5.9-11.201 9.326-18.876 9.326-7.675 0-14.727-3.426-18.876-9.326l-24.684-34.828c-1.867-2.474-4.563-2.854-5.6-2.854-1.038 0-3.942.19-5.601 2.854l-24.684 34.828c-4.149 5.9-11.201 9.326-18.876 9.326-7.675 0-14.728-3.426-18.876-9.326l-24.685-34.828c-1.866-2.474-4.563-2.854-5.6-2.854s-3.941.19-5.601 2.854l-24.684 34.828c-4.148 5.9-11.201 9.326-18.876 9.326-7.675 0-14.727-3.426-18.876-9.326l-24.684-34.828c-1.867-2.474-4.564-2.854-5.601-2.854s-3.941.19-5.6 2.854l-24.684 34.828c-4.149 5.9-11.201 9.326-18.876 9.326-7.675 0-14.728-3.426-18.877-9.326l-24.684-34.828c-1.866-2.474-4.563-2.854-5.6-2.854s-3.941.19-5.601 2.854l-24.684 34.828c-4.149 5.9-11.201 9.326-18.876 9.326-7.675 0-14.727-3.426-18.876-9.326l-24.684-34.828c-1.867-2.474-4.564-2.854-5.601-2.854s-3.941.19-5.6 2.854l-24.684 34.828c-4.149 5.9-11.202 9.326-18.877 9.326-7.674 0-14.727-3.426-18.876-9.326L1.42 390.168c-2.282-3.426-1.245-7.803 2.282-9.896 3.733-2.094 8.504-1.142 10.786 2.093l36.922 51.956c1.867 2.475 4.564 2.855 5.601 2.855s3.941-.19 5.6-2.855l24.685-34.827c4.148-5.9 11.201-9.326 18.876-9.326 7.675 0 14.727 3.426 18.876 9.326l24.684 34.827c1.867 2.475 4.564 2.855 5.601 2.855s3.941-.19 5.6-2.855l24.684-34.827c4.149-5.9 11.201-9.326 18.876-9.326 7.675 0 14.728 3.426 18.876 9.326l24.685 34.827c1.866 2.475 4.563 2.855 5.6 2.855s3.941-.19 5.601-2.855l24.684-34.827c4.149-5.9 11.201-9.326 18.876-9.326 7.675 0 14.727 3.426 18.876 9.326l24.684 34.827c1.867 2.475 4.563 2.855 5.601 2.855 1.037 0 3.941-.19 5.6-2.855l24.685-34.827c4.148-5.9 11.201-9.326 18.876-9.326 7.674 0 14.727 3.426 18.876 9.326l24.684 34.827c1.867 2.475 4.563 2.855 5.6 2.855s3.942-.19 5.601-2.855l24.684-34.827c4.148-5.9 11.201-9.326 18.876-9.326 7.675 0 14.728 3.426 18.876 9.326l24.684 34.827c1.867 2.475 4.564 2.855 5.601 2.855s3.941-.19 5.6-2.855l24.685-34.827c4.148-5.9 11.201-9.326 18.876-9.326 7.674 0 14.727 3.426 18.876 9.326l24.684 34.827c1.867 2.475 4.563 2.855 5.6 2.855 1.038 0 3.941-.19 5.601-2.855l36.923-51.956c2.281-3.426 7.259-4.187 10.786-2.093 3.733 2.093 4.563 6.661 2.281 9.896l-36.922 51.956c-3.941 5.71-10.994 9.326-18.461 9.326z"/><path d="M647.148 514.445c-7.675 0-14.728-3.426-18.876-9.326l-24.684-34.828c-1.867-2.474-4.564-2.854-5.601-2.854s-3.941.19-5.601 2.854l-24.684 34.828c-4.148 5.9-11.201 9.326-18.876 9.326-7.675 0-14.727-3.426-18.876-9.326l-24.684-34.828c-1.867-2.474-4.563-2.854-5.6-2.854-1.038 0-3.942.19-5.601 2.854l-24.684 34.828c-4.149 5.9-11.201 9.326-18.876 9.326-7.675 0-14.728-3.426-18.876-9.326l-24.685-34.828c-1.866-2.474-4.563-2.854-5.6-2.854s-3.941.19-5.601 2.854l-24.684 34.828c-4.148 5.9-11.201 9.326-18.876 9.326-7.675 0-14.727-3.426-18.876-9.326l-24.684-34.828c-1.867-2.474-4.564-2.854-5.601-2.854s-3.941.19-5.6 2.854l-24.684 34.828c-4.149 5.9-11.201 9.326-18.876 9.326-7.675 0-14.728-3.426-18.877-9.326l-24.684-34.828c-1.866-2.474-4.563-2.854-5.6-2.854s-3.941.19-5.601 2.854l-24.684 34.828c-4.149 5.9-11.201 9.326-18.876 9.326-7.675 0-14.727-3.426-18.876-9.326l-24.684-34.828c-1.867-2.474-4.564-2.854-5.601-2.854s-3.941.19-5.6 2.854l-24.684 34.828c-4.149 5.9-11.202 9.326-18.877 9.326-7.674 0-14.727-3.426-18.876-9.326L1.42 453.163c-2.282-3.426-1.245-7.803 2.282-9.897 3.733-2.093 8.504-1.141 10.786 2.094l36.922 51.956c1.867 2.474 4.564 2.855 5.601 2.855s3.941-.19 5.6-2.855l24.685-34.828c4.148-5.899 11.201-9.325 18.876-9.325 7.675 0 14.727 3.426 18.876 9.325l24.684 34.828c1.867 2.474 4.564 2.855 5.601 2.855s3.941-.19 5.6-2.855l24.684-34.828c4.149-5.899 11.201-9.325 18.876-9.325 7.675 0 14.728 3.426 18.876 9.325l24.685 34.828c1.866 2.474 4.563 2.855 5.6 2.855s3.941-.19 5.601-2.855l24.684-34.828c4.149-5.899 11.201-9.325 18.876-9.325 7.675 0 14.727 3.426 18.876 9.325l24.684 34.828c1.867 2.474 4.563 2.855 5.601 2.855 1.037 0 3.941-.19 5.6-2.855l24.685-34.828c4.148-5.899 11.201-9.325 18.876-9.325 7.674 0 14.727 3.426 18.876 9.325l24.684 34.828c1.867 2.474 4.563 2.855 5.6 2.855s3.942-.19 5.601-2.855l24.684-34.828c4.148-5.899 11.201-9.325 18.876-9.325 7.675 0 14.728 3.426 18.876 9.325l24.684 34.828c1.867 2.474 4.564 2.855 5.601 2.855s3.941-.19 5.6-2.855l24.685-34.828c4.148-5.899 11.201-9.325 18.876-9.325 7.674 0 14.727 3.426 18.876 9.325l24.684 34.828c1.867 2.474 4.563 2.855 5.6 2.855 1.038 0 3.941-.19 5.601-2.855l36.923-51.956c2.281-3.426 7.259-4.187 10.786-2.094 3.733 2.094 4.563 6.662 2.281 9.897l-36.922 51.956c-3.941 5.9-10.994 9.326-18.461 9.326z"/></g></g><defs><clipPath id="clip0"><path fill="#fff" d="M0 0h590v488H0z"/></clipPath><clipPath id="clip1"><path fill="#fff" d="M0 0h590v704H0z"/></clipPath></defs></svg>