<svg width="370" height="544" viewBox="0 0 370 544" fill="none" xmlns="http://www.w3.org/2000/svg">
<g clip-path="url(#clip0)">
<g opacity="0.5">
<path d="M342.5 9.06667C336.525 13.0895 332.342 16.64 321.841 16.64C311.34 16.64 306.632 13.5314 300.477 9.50856C299.209 8.59428 297.942 7.86286 296.494 6.94858C290.7 3.29143 283.458 0 271.509 0C259.74 0 252.498 3.29143 246.524 6.94858C245.075 7.86286 243.808 8.59428 242.541 9.50856C236.566 13.5314 231.678 16.64 221.358 16.64C210.857 16.64 206.15 13.5314 200.175 9.50856C198.908 8.59428 197.64 7.86286 196.192 6.94858C190.398 3.29143 183.156 0 171.207 0C159.439 0 152.197 3.29143 146.222 6.94858C144.774 7.86286 143.506 8.59428 142.239 9.50856C136.264 13.5314 131.376 16.64 121.056 16.64C110.555 16.64 105.848 13.5314 99.8732 9.50856C98.6059 8.59428 97.3386 7.86286 95.8902 6.94858C90.0966 3.29143 82.8545 0 70.9052 0C59.137 0 51.895 3.29143 45.9203 6.94858C44.4719 7.86286 43.2046 8.59428 41.9372 9.50856C35.9626 13.5314 31.0742 16.64 20.7544 16.64C10.2535 16.64 5.54614 13.5314 -0.428497 9.50856C-1.69586 8.59428 -2.96323 7.86286 -4.41162 6.94858C-10.2052 3.29143 -17.4472 0 -29.3965 0C-41.1648 0 -48.4068 3.29143 -54.3814 6.94858C-55.8298 7.86286 -57.0972 8.59428 -58.3645 9.50856C-64.3392 13.5314 -69.2275 16.64 -79.5474 16.64C-90.0483 16.64 -94.7556 13.5314 -100.73 9.50856C-101.998 8.59428 -103.265 7.86286 -104.713 6.94858C-110.507 3.29143 -117.749 0 -129.698 0C-141.466 0 -148.709 3.29143 -154.683 6.94858C-156.132 7.86286 -157.399 8.59428 -158.666 9.50856C-164.641 13.5314 -169.529 16.64 -179.849 16.64C-190.35 16.64 -195.057 13.5314 -201.032 9.50856C-202.299 8.59428 -203.567 7.86286 -205.015 6.94858C-210.809 3.29143 -218.051 0 -230 0V13.8972C-219.499 13.8972 -214.792 17.0057 -208.817 21.0286C-202.118 25.4171 -194.514 30.5371 -180.03 30.5371C-165.546 30.5371 -157.942 25.6 -151.243 21.0286C-145.269 17.0057 -140.38 13.8972 -130.06 13.8972C-119.559 13.8972 -114.852 17.0057 -108.877 21.0286C-102.179 25.4171 -94.5745 30.5371 -80.0905 30.5371C-65.6065 30.5371 -58.0024 25.6 -51.3036 21.0286C-45.3289 17.0057 -40.4406 13.8972 -30.1207 13.8972C-19.6198 13.8972 -14.9125 17.0057 -8.93787 21.0286C-2.23901 25.4171 5.36513 30.5371 19.8491 30.5371C34.3331 30.5371 41.9372 25.6 48.6361 21.0286C54.6107 17.0057 59.4991 13.8972 69.8189 13.8972C80.3198 13.8972 85.0271 17.0057 91.0018 21.0286C97.7006 25.4171 105.305 30.5371 119.789 30.5371C134.273 30.5371 141.877 25.6 148.576 21.0286C154.55 17.0057 159.439 13.8972 169.759 13.8972C180.259 13.8972 184.967 17.0057 190.941 21.0286C197.64 25.4171 205.244 30.5371 219.728 30.5371C234.212 30.5371 241.816 25.6 248.515 21.0286C254.49 17.0057 259.378 13.8972 269.698 13.8972C280.199 13.8972 284.906 17.0057 291.062 21.0286C297.761 25.4171 305.365 30.5371 319.849 30.5371C334.333 30.5371 341.937 25.6 348.636 21.0286C354.611 17.0057 359.499 13.8972 370 13.8972V0C365 0 360 0 355 2.26666C350 4.53333 343.767 8.33524 342.5 9.06667Z" fill="#C3C6DE"/>
<path d="M342.5 54.4C336.525 58.4229 332.342 61.9734 321.841 61.9734C311.34 61.9734 306.632 58.8648 300.477 54.8419C299.209 53.9276 297.942 53.1962 296.494 52.2819C290.7 48.6248 283.458 45.3333 271.509 45.3333C259.74 45.3333 252.498 48.6248 246.524 52.2819C245.075 53.1962 243.808 53.9276 242.541 54.8419C236.566 58.8648 231.678 61.9734 221.358 61.9734C210.857 61.9734 206.15 58.8648 200.175 54.8419C198.908 53.9276 197.64 53.1962 196.192 52.2819C190.398 48.6248 183.156 45.3333 171.207 45.3333C159.439 45.3333 152.197 48.6248 146.222 52.2819C144.774 53.1962 143.506 53.9276 142.239 54.8419C136.264 58.8648 131.376 61.9734 121.056 61.9734C110.555 61.9734 105.848 58.8648 99.8732 54.8419C98.6059 53.9276 97.3386 53.1962 95.8902 52.2819C90.0966 48.6248 82.8545 45.3333 70.9052 45.3333C59.137 45.3333 51.895 48.6248 45.9203 52.2819C44.4719 53.1962 43.2046 53.9276 41.9372 54.8419C35.9626 58.8648 31.0742 61.9734 20.7544 61.9734C10.2535 61.9734 5.54614 58.8648 -0.428497 54.8419C-1.69586 53.9276 -2.96323 53.1962 -4.41162 52.2819C-10.2052 48.6248 -17.4472 45.3333 -29.3965 45.3333C-41.1648 45.3333 -48.4068 48.6248 -54.3814 52.2819C-55.8298 53.1962 -57.0972 53.9276 -58.3645 54.8419C-64.3392 58.8648 -69.2275 61.9734 -79.5474 61.9734C-90.0483 61.9734 -94.7556 58.8648 -100.73 54.8419C-101.998 53.9276 -103.265 53.1962 -104.713 52.2819C-110.507 48.6248 -117.749 45.3333 -129.698 45.3333C-141.466 45.3333 -148.709 48.6248 -154.683 52.2819C-156.132 53.1962 -157.399 53.9276 -158.666 54.8419C-164.641 58.8648 -169.529 61.9734 -179.849 61.9734C-190.35 61.9734 -195.057 58.8648 -201.032 54.8419C-202.299 53.9276 -203.567 53.1962 -205.015 52.2819C-210.809 48.6248 -218.051 45.3333 -230 45.3333V59.2305C-219.499 59.2305 -214.792 62.3391 -208.817 66.3619C-202.118 70.7505 -194.514 75.8705 -180.03 75.8705C-165.546 75.8705 -157.942 70.9333 -151.243 66.3619C-145.269 62.3391 -140.38 59.2305 -130.06 59.2305C-119.559 59.2305 -114.852 62.3391 -108.877 66.3619C-102.179 70.7505 -94.5745 75.8705 -80.0905 75.8705C-65.6065 75.8705 -58.0024 70.9333 -51.3036 66.3619C-45.3289 62.3391 -40.4406 59.2305 -30.1207 59.2305C-19.6198 59.2305 -14.9125 62.3391 -8.93787 66.3619C-2.23901 70.7505 5.36513 75.8705 19.8491 75.8705C34.3331 75.8705 41.9372 70.9333 48.6361 66.3619C54.6107 62.3391 59.4991 59.2305 69.8189 59.2305C80.3198 59.2305 85.0271 62.3391 91.0018 66.3619C97.7006 70.7505 105.305 75.8705 119.789 75.8705C134.273 75.8705 141.877 70.9333 148.576 66.3619C154.55 62.3391 159.439 59.2305 169.759 59.2305C180.259 59.2305 184.967 62.3391 190.941 66.3619C197.64 70.7505 205.244 75.8705 219.728 75.8705C234.212 75.8705 241.816 70.9333 248.515 66.3619C254.49 62.3391 259.378 59.2305 269.698 59.2305C280.199 59.2305 284.906 62.3391 291.062 66.3619C297.761 70.7505 305.365 75.8705 319.849 75.8705C334.333 75.8705 341.937 70.9333 348.636 66.3619C354.611 62.3391 359.499 59.2305 370 59.2305V45.3333C365 45.3333 360 45.3333 355 47.6C350 49.8667 343.767 53.6686 342.5 54.4Z" fill="#C3C6DE"/>
<path d="M342.5 99.7334C336.525 103.756 332.342 107.307 321.841 107.307C311.34 107.307 306.632 104.198 300.477 100.175C299.209 99.261 297.942 98.5295 296.494 97.6153C290.7 93.9581 283.458 90.6667 271.509 90.6667C259.74 90.6667 252.498 93.9581 246.524 97.6153C245.075 98.5295 243.808 99.261 242.541 100.175C236.566 104.198 231.678 107.307 221.358 107.307C210.857 107.307 206.15 104.198 200.175 100.175C198.908 99.261 197.64 98.5295 196.192 97.6153C190.398 93.9581 183.156 90.6667 171.207 90.6667C159.439 90.6667 152.197 93.9581 146.222 97.6153C144.774 98.5295 143.506 99.261 142.239 100.175C136.264 104.198 131.376 107.307 121.056 107.307C110.555 107.307 105.848 104.198 99.8732 100.175C98.6059 99.261 97.3386 98.5295 95.8902 97.6153C90.0966 93.9581 82.8545 90.6667 70.9052 90.6667C59.137 90.6667 51.895 93.9581 45.9203 97.6153C44.4719 98.5295 43.2046 99.261 41.9372 100.175C35.9626 104.198 31.0742 107.307 20.7544 107.307C10.2535 107.307 5.54614 104.198 -0.428497 100.175C-1.69586 99.261 -2.96323 98.5295 -4.41162 97.6153C-10.2052 93.9581 -17.4472 90.6667 -29.3965 90.6667C-41.1648 90.6667 -48.4068 93.9581 -54.3814 97.6153C-55.8298 98.5295 -57.0972 99.261 -58.3645 100.175C-64.3392 104.198 -69.2275 107.307 -79.5474 107.307C-90.0483 107.307 -94.7556 104.198 -100.73 100.175C-101.998 99.261 -103.265 98.5295 -104.713 97.6153C-110.507 93.9581 -117.749 90.6667 -129.698 90.6667C-141.466 90.6667 -148.709 93.9581 -154.683 97.6153C-156.132 98.5295 -157.399 99.261 -158.666 100.175C-164.641 104.198 -169.529 107.307 -179.849 107.307C-190.35 107.307 -195.057 104.198 -201.032 100.175C-202.299 99.261 -203.567 98.5295 -205.015 97.6153C-210.809 93.9581 -218.051 90.6667 -230 90.6667V104.564C-219.499 104.564 -214.792 107.672 -208.817 111.695C-202.118 116.084 -194.514 121.204 -180.03 121.204C-165.546 121.204 -157.942 116.267 -151.243 111.695C-145.269 107.672 -140.38 104.564 -130.06 104.564C-119.559 104.564 -114.852 107.672 -108.877 111.695C-102.179 116.084 -94.5745 121.204 -80.0905 121.204C-65.6065 121.204 -58.0024 116.267 -51.3036 111.695C-45.3289 107.672 -40.4406 104.564 -30.1207 104.564C-19.6198 104.564 -14.9125 107.672 -8.93787 111.695C-2.23901 116.084 5.36513 121.204 19.8491 121.204C34.3331 121.204 41.9372 116.267 48.6361 111.695C54.6107 107.672 59.4991 104.564 69.8189 104.564C80.3198 104.564 85.0271 107.672 91.0018 111.695C97.7006 116.084 105.305 121.204 119.789 121.204C134.273 121.204 141.877 116.267 148.576 111.695C154.55 107.672 159.439 104.564 169.759 104.564C180.259 104.564 184.967 107.672 190.941 111.695C197.64 116.084 205.244 121.204 219.728 121.204C234.212 121.204 241.816 116.267 248.515 111.695C254.49 107.672 259.378 104.564 269.698 104.564C280.199 104.564 284.906 107.672 291.062 111.695C297.761 116.084 305.365 121.204 319.849 121.204C334.333 121.204 341.937 116.267 348.636 111.695C354.611 107.672 359.499 104.564 370 104.564V90.6667C365 90.6667 360 90.6667 355 92.9333C350 95.2 343.767 99.0019 342.5 99.7334Z" fill="#C3C6DE"/>
<path d="M342.5 145.067C336.525 149.09 332.342 152.64 321.841 152.64C311.34 152.64 306.632 149.531 300.477 145.509C299.209 144.594 297.942 143.863 296.494 142.949C290.7 139.291 283.458 136 271.509 136C259.74 136 252.498 139.291 246.524 142.949C245.075 143.863 243.808 144.594 242.541 145.509C236.566 149.531 231.678 152.64 221.358 152.64C210.857 152.64 206.15 149.531 200.175 145.509C198.908 144.594 197.64 143.863 196.192 142.949C190.398 139.291 183.156 136 171.207 136C159.439 136 152.197 139.291 146.222 142.949C144.774 143.863 143.506 144.594 142.239 145.509C136.264 149.531 131.376 152.64 121.056 152.64C110.555 152.64 105.848 149.531 99.8732 145.509C98.6059 144.594 97.3386 143.863 95.8902 142.949C90.0966 139.291 82.8545 136 70.9052 136C59.137 136 51.895 139.291 45.9203 142.949C44.4719 143.863 43.2046 144.594 41.9372 145.509C35.9626 149.531 31.0742 152.64 20.7544 152.64C10.2535 152.64 5.54614 149.531 -0.428497 145.509C-1.69586 144.594 -2.96323 143.863 -4.41162 142.949C-10.2052 139.291 -17.4472 136 -29.3965 136C-41.1648 136 -48.4068 139.291 -54.3814 142.949C-55.8298 143.863 -57.0972 144.594 -58.3645 145.509C-64.3392 149.531 -69.2275 152.64 -79.5474 152.64C-90.0483 152.64 -94.7556 149.531 -100.73 145.509C-101.998 144.594 -103.265 143.863 -104.713 142.949C-110.507 139.291 -117.749 136 -129.698 136C-141.466 136 -148.709 139.291 -154.683 142.949C-156.132 143.863 -157.399 144.594 -158.666 145.509C-164.641 149.531 -169.529 152.64 -179.849 152.64C-190.35 152.64 -195.057 149.531 -201.032 145.509C-202.299 144.594 -203.567 143.863 -205.015 142.949C-210.809 139.291 -218.051 136 -230 136V149.897C-219.499 149.897 -214.792 153.006 -208.817 157.029C-202.118 161.417 -194.514 166.537 -180.03 166.537C-165.546 166.537 -157.942 161.6 -151.243 157.029C-145.269 153.006 -140.38 149.897 -130.06 149.897C-119.559 149.897 -114.852 153.006 -108.877 157.029C-102.179 161.417 -94.5745 166.537 -80.0905 166.537C-65.6065 166.537 -58.0024 161.6 -51.3036 157.029C-45.3289 153.006 -40.4406 149.897 -30.1207 149.897C-19.6198 149.897 -14.9125 153.006 -8.93787 157.029C-2.23901 161.417 5.36513 166.537 19.8491 166.537C34.3331 166.537 41.9372 161.6 48.6361 157.029C54.6107 153.006 59.4991 149.897 69.8189 149.897C80.3198 149.897 85.0271 153.006 91.0018 157.029C97.7006 161.417 105.305 166.537 119.789 166.537C134.273 166.537 141.877 161.6 148.576 157.029C154.55 153.006 159.439 149.897 169.759 149.897C180.259 149.897 184.967 153.006 190.941 157.029C197.64 161.417 205.244 166.537 219.728 166.537C234.212 166.537 241.816 161.6 248.515 157.029C254.49 153.006 259.378 149.897 269.698 149.897C280.199 149.897 284.906 153.006 291.062 157.029C297.761 161.417 305.365 166.537 319.849 166.537C334.333 166.537 341.937 161.6 348.636 157.029C354.611 153.006 359.499 149.897 370 149.897V136C365 136 360 136 355 138.267C350 140.533 343.767 144.335 342.5 145.067Z" fill="#C3C6DE"/>
<path d="M342.5 190.4C336.525 194.423 332.342 197.973 321.841 197.973C311.34 197.973 306.632 194.865 300.477 190.842C299.209 189.928 297.942 189.196 296.494 188.282C290.7 184.625 283.458 181.333 271.509 181.333C259.74 181.333 252.498 184.625 246.524 188.282C245.075 189.196 243.808 189.928 242.541 190.842C236.566 194.865 231.678 197.973 221.358 197.973C210.857 197.973 206.15 194.865 200.175 190.842C198.908 189.928 197.64 189.196 196.192 188.282C190.398 184.625 183.156 181.333 171.207 181.333C159.439 181.333 152.197 184.625 146.222 188.282C144.774 189.196 143.506 189.928 142.239 190.842C136.264 194.865 131.376 197.973 121.056 197.973C110.555 197.973 105.848 194.865 99.8732 190.842C98.6059 189.928 97.3386 189.196 95.8902 188.282C90.0966 184.625 82.8545 181.333 70.9052 181.333C59.137 181.333 51.895 184.625 45.9203 188.282C44.4719 189.196 43.2046 189.928 41.9372 190.842C35.9626 194.865 31.0742 197.973 20.7544 197.973C10.2535 197.973 5.54614 194.865 -0.428497 190.842C-1.69586 189.928 -2.96323 189.196 -4.41162 188.282C-10.2052 184.625 -17.4472 181.333 -29.3965 181.333C-41.1648 181.333 -48.4068 184.625 -54.3814 188.282C-55.8298 189.196 -57.0972 189.928 -58.3645 190.842C-64.3392 194.865 -69.2275 197.973 -79.5474 197.973C-90.0483 197.973 -94.7556 194.865 -100.73 190.842C-101.998 189.928 -103.265 189.196 -104.713 188.282C-110.507 184.625 -117.749 181.333 -129.698 181.333C-141.466 181.333 -148.709 184.625 -154.683 188.282C-156.132 189.196 -157.399 189.928 -158.666 190.842C-164.641 194.865 -169.529 197.973 -179.849 197.973C-190.35 197.973 -195.057 194.865 -201.032 190.842C-202.299 189.928 -203.567 189.196 -205.015 188.282C-210.809 184.625 -218.051 181.333 -230 181.333V195.23C-219.499 195.23 -214.792 198.339 -208.817 202.362C-202.118 206.75 -194.514 211.87 -180.03 211.87C-165.546 211.87 -157.942 206.933 -151.243 202.362C-145.269 198.339 -140.38 195.23 -130.06 195.23C-119.559 195.23 -114.852 198.339 -108.877 202.362C-102.179 206.75 -94.5745 211.87 -80.0905 211.87C-65.6065 211.87 -58.0024 206.933 -51.3036 202.362C-45.3289 198.339 -40.4406 195.23 -30.1207 195.23C-19.6198 195.23 -14.9125 198.339 -8.93787 202.362C-2.23901 206.75 5.36513 211.87 19.8491 211.87C34.3331 211.87 41.9372 206.933 48.6361 202.362C54.6107 198.339 59.4991 195.23 69.8189 195.23C80.3198 195.23 85.0271 198.339 91.0018 202.362C97.7006 206.75 105.305 211.87 119.789 211.87C134.273 211.87 141.877 206.933 148.576 202.362C154.55 198.339 159.439 195.23 169.759 195.23C180.259 195.23 184.967 198.339 190.941 202.362C197.64 206.75 205.244 211.87 219.728 211.87C234.212 211.87 241.816 206.933 248.515 202.362C254.49 198.339 259.378 195.23 269.698 195.23C280.199 195.23 284.906 198.339 291.062 202.362C297.761 206.75 305.365 211.87 319.849 211.87C334.333 211.87 341.937 206.933 348.636 202.362C354.611 198.339 359.499 195.23 370 195.23V181.333C365 181.333 360 181.333 355 183.6C350 185.867 343.767 189.669 342.5 190.4Z" fill="#C3C6DE"/>
<path d="M342.5 235.733C336.525 239.756 332.342 243.307 321.841 243.307C311.34 243.307 306.632 240.198 300.477 236.175C299.209 235.261 297.942 234.53 296.494 233.615C290.7 229.958 283.458 226.667 271.509 226.667C259.74 226.667 252.498 229.958 246.524 233.615C245.075 234.53 243.808 235.261 242.541 236.175C236.566 240.198 231.678 243.307 221.358 243.307C210.857 243.307 206.15 240.198 200.175 236.175C198.908 235.261 197.64 234.53 196.192 233.615C190.398 229.958 183.156 226.667 171.207 226.667C159.439 226.667 152.197 229.958 146.222 233.615C144.774 234.53 143.506 235.261 142.239 236.175C136.264 240.198 131.376 243.307 121.056 243.307C110.555 243.307 105.848 240.198 99.8732 236.175C98.6059 235.261 97.3386 234.53 95.8902 233.615C90.0966 229.958 82.8545 226.667 70.9052 226.667C59.137 226.667 51.895 229.958 45.9203 233.615C44.4719 234.53 43.2046 235.261 41.9372 236.175C35.9626 240.198 31.0742 243.307 20.7544 243.307C10.2535 243.307 5.54614 240.198 -0.428497 236.175C-1.69586 235.261 -2.96323 234.53 -4.41162 233.615C-10.2052 229.958 -17.4472 226.667 -29.3965 226.667C-41.1648 226.667 -48.4068 229.958 -54.3814 233.615C-55.8298 234.53 -57.0972 235.261 -58.3645 236.175C-64.3392 240.198 -69.2275 243.307 -79.5474 243.307C-90.0483 243.307 -94.7556 240.198 -100.73 236.175C-101.998 235.261 -103.265 234.53 -104.713 233.615C-110.507 229.958 -117.749 226.667 -129.698 226.667C-141.466 226.667 -148.709 229.958 -154.683 233.615C-156.132 234.53 -157.399 235.261 -158.666 236.175C-164.641 240.198 -169.529 243.307 -179.849 243.307C-190.35 243.307 -195.057 240.198 -201.032 236.175C-202.299 235.261 -203.567 234.53 -205.015 233.615C-210.809 229.958 -218.051 226.667 -230 226.667V240.564C-219.499 240.564 -214.792 243.672 -208.817 247.695C-202.118 252.084 -194.514 257.204 -180.03 257.204C-165.546 257.204 -157.942 252.267 -151.243 247.695C-145.269 243.672 -140.38 240.564 -130.06 240.564C-119.559 240.564 -114.852 243.672 -108.877 247.695C-102.179 252.084 -94.5745 257.204 -80.0905 257.204C-65.6065 257.204 -58.0024 252.267 -51.3036 247.695C-45.3289 243.672 -40.4406 240.564 -30.1207 240.564C-19.6198 240.564 -14.9125 243.672 -8.93787 247.695C-2.23901 252.084 5.36513 257.204 19.8491 257.204C34.3331 257.204 41.9372 252.267 48.6361 247.695C54.6107 243.672 59.4991 240.564 69.8189 240.564C80.3198 240.564 85.0271 243.672 91.0018 247.695C97.7006 252.084 105.305 257.204 119.789 257.204C134.273 257.204 141.877 252.267 148.576 247.695C154.55 243.672 159.439 240.564 169.759 240.564C180.259 240.564 184.967 243.672 190.941 247.695C197.64 252.084 205.244 257.204 219.728 257.204C234.212 257.204 241.816 252.267 248.515 247.695C254.49 243.672 259.378 240.564 269.698 240.564C280.199 240.564 284.906 243.672 291.062 247.695C297.761 252.084 305.365 257.204 319.849 257.204C334.333 257.204 341.937 252.267 348.636 247.695C354.611 243.672 359.499 240.564 370 240.564V226.667C365 226.667 360 226.667 355 228.933C350 231.2 343.767 235.002 342.5 235.733Z" fill="#C3C6DE"/>
<path d="M342.5 281.067C336.525 285.09 332.342 288.64 321.841 288.64C311.34 288.64 306.632 285.531 300.477 281.509C299.209 280.594 297.942 279.863 296.494 278.949C290.7 275.291 283.458 272 271.509 272C259.74 272 252.498 275.291 246.524 278.949C245.075 279.863 243.808 280.594 242.541 281.509C236.566 285.531 231.678 288.64 221.358 288.64C210.857 288.64 206.15 285.531 200.175 281.509C198.908 280.594 197.64 279.863 196.192 278.949C190.398 275.291 183.156 272 171.207 272C159.439 272 152.197 275.291 146.222 278.949C144.774 279.863 143.506 280.594 142.239 281.509C136.264 285.531 131.376 288.64 121.056 288.64C110.555 288.64 105.848 285.531 99.8732 281.509C98.6059 280.594 97.3386 279.863 95.8902 278.949C90.0966 275.291 82.8545 272 70.9052 272C59.137 272 51.895 275.291 45.9203 278.949C44.4719 279.863 43.2046 280.594 41.9372 281.509C35.9626 285.531 31.0742 288.64 20.7544 288.64C10.2535 288.64 5.54614 285.531 -0.428497 281.509C-1.69586 280.594 -2.96323 279.863 -4.41162 278.949C-10.2052 275.291 -17.4472 272 -29.3965 272C-41.1648 272 -48.4068 275.291 -54.3814 278.949C-55.8298 279.863 -57.0972 280.594 -58.3645 281.509C-64.3392 285.531 -69.2275 288.64 -79.5474 288.64C-90.0483 288.64 -94.7556 285.531 -100.73 281.509C-101.998 280.594 -103.265 279.863 -104.713 278.949C-110.507 275.291 -117.749 272 -129.698 272C-141.466 272 -148.709 275.291 -154.683 278.949C-156.132 279.863 -157.399 280.594 -158.666 281.509C-164.641 285.531 -169.529 288.64 -179.849 288.64C-190.35 288.64 -195.057 285.531 -201.032 281.509C-202.299 280.594 -203.567 279.863 -205.015 278.949C-210.809 275.291 -218.051 272 -230 272V285.897C-219.499 285.897 -214.792 289.006 -208.817 293.029C-202.118 297.417 -194.514 302.537 -180.03 302.537C-165.546 302.537 -157.942 297.6 -151.243 293.029C-145.269 289.006 -140.38 285.897 -130.06 285.897C-119.559 285.897 -114.852 289.006 -108.877 293.029C-102.179 297.417 -94.5745 302.537 -80.0905 302.537C-65.6065 302.537 -58.0024 297.6 -51.3036 293.029C-45.3289 289.006 -40.4406 285.897 -30.1207 285.897C-19.6198 285.897 -14.9125 289.006 -8.93787 293.029C-2.23901 297.417 5.36513 302.537 19.8491 302.537C34.3331 302.537 41.9372 297.6 48.6361 293.029C54.6107 289.006 59.4991 285.897 69.8189 285.897C80.3198 285.897 85.0271 289.006 91.0018 293.029C97.7006 297.417 105.305 302.537 119.789 302.537C134.273 302.537 141.877 297.6 148.576 293.029C154.55 289.006 159.439 285.897 169.759 285.897C180.259 285.897 184.967 289.006 190.941 293.029C197.64 297.417 205.244 302.537 219.728 302.537C234.212 302.537 241.816 297.6 248.515 293.029C254.49 289.006 259.378 285.897 269.698 285.897C280.199 285.897 284.906 289.006 291.062 293.029C297.761 297.417 305.365 302.537 319.849 302.537C334.333 302.537 341.937 297.6 348.636 293.029C354.611 289.006 359.499 285.897 370 285.897V272C365 272 360 272 355 274.267C350 276.533 343.767 280.335 342.5 281.067Z" fill="#C3C6DE"/>
<path d="M342.5 326.4C336.525 330.423 332.342 333.973 321.841 333.973C311.34 333.973 306.632 330.865 300.477 326.842C299.209 325.928 297.942 325.196 296.494 324.282C290.7 320.625 283.458 317.333 271.509 317.333C259.74 317.333 252.498 320.625 246.524 324.282C245.075 325.196 243.808 325.928 242.541 326.842C236.566 330.865 231.678 333.973 221.358 333.973C210.857 333.973 206.15 330.865 200.175 326.842C198.908 325.928 197.64 325.196 196.192 324.282C190.398 320.625 183.156 317.333 171.207 317.333C159.439 317.333 152.197 320.625 146.222 324.282C144.774 325.196 143.506 325.928 142.239 326.842C136.264 330.865 131.376 333.973 121.056 333.973C110.555 333.973 105.848 330.865 99.8732 326.842C98.6059 325.928 97.3386 325.196 95.8902 324.282C90.0966 320.625 82.8545 317.333 70.9052 317.333C59.137 317.333 51.895 320.625 45.9203 324.282C44.4719 325.196 43.2046 325.928 41.9372 326.842C35.9626 330.865 31.0742 333.973 20.7544 333.973C10.2535 333.973 5.54614 330.865 -0.428497 326.842C-1.69586 325.928 -2.96323 325.196 -4.41162 324.282C-10.2052 320.625 -17.4472 317.333 -29.3965 317.333C-41.1648 317.333 -48.4068 320.625 -54.3814 324.282C-55.8298 325.196 -57.0972 325.928 -58.3645 326.842C-64.3392 330.865 -69.2275 333.973 -79.5474 333.973C-90.0483 333.973 -94.7556 330.865 -100.73 326.842C-101.998 325.928 -103.265 325.196 -104.713 324.282C-110.507 320.625 -117.749 317.333 -129.698 317.333C-141.466 317.333 -148.709 320.625 -154.683 324.282C-156.132 325.196 -157.399 325.928 -158.666 326.842C-164.641 330.865 -169.529 333.973 -179.849 333.973C-190.35 333.973 -195.057 330.865 -201.032 326.842C-202.299 325.928 -203.567 325.196 -205.015 324.282C-210.809 320.625 -218.051 317.333 -230 317.333V331.23C-219.499 331.23 -214.792 334.339 -208.817 338.362C-202.118 342.75 -194.514 347.87 -180.03 347.87C-165.546 347.87 -157.942 342.933 -151.243 338.362C-145.269 334.339 -140.38 331.23 -130.06 331.23C-119.559 331.23 -114.852 334.339 -108.877 338.362C-102.179 342.75 -94.5745 347.87 -80.0905 347.87C-65.6065 347.87 -58.0024 342.933 -51.3036 338.362C-45.3289 334.339 -40.4406 331.23 -30.1207 331.23C-19.6198 331.23 -14.9125 334.339 -8.93787 338.362C-2.23901 342.75 5.36513 347.87 19.8491 347.87C34.3331 347.87 41.9372 342.933 48.6361 338.362C54.6107 334.339 59.4991 331.23 69.8189 331.23C80.3198 331.23 85.0271 334.339 91.0018 338.362C97.7006 342.75 105.305 347.87 119.789 347.87C134.273 347.87 141.877 342.933 148.576 338.362C154.55 334.339 159.439 331.23 169.759 331.23C180.259 331.23 184.967 334.339 190.941 338.362C197.64 342.75 205.244 347.87 219.728 347.87C234.212 347.87 241.816 342.933 248.515 338.362C254.49 334.339 259.378 331.23 269.698 331.23C280.199 331.23 284.906 334.339 291.062 338.362C297.761 342.75 305.365 347.87 319.849 347.87C334.333 347.87 341.937 342.933 348.636 338.362C354.611 334.339 359.499 331.23 370 331.23V317.333C365 317.333 360 317.333 355 319.6C350 321.867 343.767 325.669 342.5 326.4Z" fill="#C3C6DE"/>
<path d="M342.5 371.733C336.525 375.756 332.342 379.307 321.841 379.307C311.34 379.307 306.632 376.198 300.477 372.175C299.209 371.261 297.942 370.53 296.494 369.615C290.7 365.958 283.458 362.667 271.509 362.667C259.74 362.667 252.498 365.958 246.524 369.615C245.075 370.53 243.808 371.261 242.541 372.175C236.566 376.198 231.678 379.307 221.358 379.307C210.857 379.307 206.15 376.198 200.175 372.175C198.908 371.261 197.64 370.53 196.192 369.615C190.398 365.958 183.156 362.667 171.207 362.667C159.439 362.667 152.197 365.958 146.222 369.615C144.774 370.53 143.506 371.261 142.239 372.175C136.264 376.198 131.376 379.307 121.056 379.307C110.555 379.307 105.848 376.198 99.8732 372.175C98.6059 371.261 97.3386 370.53 95.8902 369.615C90.0966 365.958 82.8545 362.667 70.9052 362.667C59.137 362.667 51.895 365.958 45.9203 369.615C44.4719 370.53 43.2046 371.261 41.9372 372.175C35.9626 376.198 31.0742 379.307 20.7544 379.307C10.2535 379.307 5.54614 376.198 -0.428497 372.175C-1.69586 371.261 -2.96323 370.53 -4.41162 369.615C-10.2052 365.958 -17.4472 362.667 -29.3965 362.667C-41.1648 362.667 -48.4068 365.958 -54.3814 369.615C-55.8298 370.53 -57.0972 371.261 -58.3645 372.175C-64.3392 376.198 -69.2275 379.307 -79.5474 379.307C-90.0483 379.307 -94.7556 376.198 -100.73 372.175C-101.998 371.261 -103.265 370.53 -104.713 369.615C-110.507 365.958 -117.749 362.667 -129.698 362.667C-141.466 362.667 -148.709 365.958 -154.683 369.615C-156.132 370.53 -157.399 371.261 -158.666 372.175C-164.641 376.198 -169.529 379.307 -179.849 379.307C-190.35 379.307 -195.057 376.198 -201.032 372.175C-202.299 371.261 -203.567 370.53 -205.015 369.615C-210.809 365.958 -218.051 362.667 -230 362.667V376.564C-219.499 376.564 -214.792 379.672 -208.817 383.695C-202.118 388.084 -194.514 393.204 -180.03 393.204C-165.546 393.204 -157.942 388.267 -151.243 383.695C-145.269 379.672 -140.38 376.564 -130.06 376.564C-119.559 376.564 -114.852 379.672 -108.877 383.695C-102.179 388.084 -94.5745 393.204 -80.0905 393.204C-65.6065 393.204 -58.0024 388.267 -51.3036 383.695C-45.3289 379.672 -40.4406 376.564 -30.1207 376.564C-19.6198 376.564 -14.9125 379.672 -8.93787 383.695C-2.23901 388.084 5.36513 393.204 19.8491 393.204C34.3331 393.204 41.9372 388.267 48.6361 383.695C54.6107 379.672 59.4991 376.564 69.8189 376.564C80.3198 376.564 85.0271 379.672 91.0018 383.695C97.7006 388.084 105.305 393.204 119.789 393.204C134.273 393.204 141.877 388.267 148.576 383.695C154.55 379.672 159.439 376.564 169.759 376.564C180.259 376.564 184.967 379.672 190.941 383.695C197.64 388.084 205.244 393.204 219.728 393.204C234.212 393.204 241.816 388.267 248.515 383.695C254.49 379.672 259.378 376.564 269.698 376.564C280.199 376.564 284.906 379.672 291.062 383.695C297.761 388.084 305.365 393.204 319.849 393.204C334.333 393.204 341.937 388.267 348.636 383.695C354.611 379.672 359.499 376.564 370 376.564V362.667C365 362.667 360 362.667 355 364.933C350 367.2 343.767 371.002 342.5 371.733Z" fill="#C3C6DE"/>
<path d="M342.5 417.067C336.525 421.09 332.342 424.64 321.841 424.64C311.34 424.64 306.632 421.531 300.477 417.509C299.209 416.594 297.942 415.863 296.494 414.949C290.7 411.291 283.458 408 271.509 408C259.74 408 252.498 411.291 246.524 414.949C245.075 415.863 243.808 416.594 242.541 417.509C236.566 421.531 231.678 424.64 221.358 424.64C210.857 424.64 206.15 421.531 200.175 417.509C198.908 416.594 197.64 415.863 196.192 414.949C190.398 411.291 183.156 408 171.207 408C159.439 408 152.197 411.291 146.222 414.949C144.774 415.863 143.506 416.594 142.239 417.509C136.264 421.531 131.376 424.64 121.056 424.64C110.555 424.64 105.848 421.531 99.8732 417.509C98.6059 416.594 97.3386 415.863 95.8902 414.949C90.0966 411.291 82.8545 408 70.9052 408C59.137 408 51.895 411.291 45.9203 414.949C44.4719 415.863 43.2046 416.594 41.9372 417.509C35.9626 421.531 31.0742 424.64 20.7544 424.64C10.2535 424.64 5.54614 421.531 -0.428497 417.509C-1.69586 416.594 -2.96323 415.863 -4.41162 414.949C-10.2052 411.291 -17.4472 408 -29.3965 408C-41.1648 408 -48.4068 411.291 -54.3814 414.949C-55.8298 415.863 -57.0972 416.594 -58.3645 417.509C-64.3392 421.531 -69.2275 424.64 -79.5474 424.64C-90.0483 424.64 -94.7556 421.531 -100.73 417.509C-101.998 416.594 -103.265 415.863 -104.713 414.949C-110.507 411.291 -117.749 408 -129.698 408C-141.466 408 -148.709 411.291 -154.683 414.949C-156.132 415.863 -157.399 416.594 -158.666 417.509C-164.641 421.531 -169.529 424.64 -179.849 424.64C-190.35 424.64 -195.057 421.531 -201.032 417.509C-202.299 416.594 -203.567 415.863 -205.015 414.949C-210.809 411.291 -218.051 408 -230 408V421.897C-219.499 421.897 -214.792 425.006 -208.817 429.029C-202.118 433.417 -194.514 438.537 -180.03 438.537C-165.546 438.537 -157.942 433.6 -151.243 429.029C-145.269 425.006 -140.38 421.897 -130.06 421.897C-119.559 421.897 -114.852 425.006 -108.877 429.029C-102.179 433.417 -94.5745 438.537 -80.0905 438.537C-65.6065 438.537 -58.0024 433.6 -51.3036 429.029C-45.3289 425.006 -40.4406 421.897 -30.1207 421.897C-19.6198 421.897 -14.9125 425.006 -8.93787 429.029C-2.23901 433.417 5.36513 438.537 19.8491 438.537C34.3331 438.537 41.9372 433.6 48.6361 429.029C54.6107 425.006 59.4991 421.897 69.8189 421.897C80.3198 421.897 85.0271 425.006 91.0018 429.029C97.7006 433.417 105.305 438.537 119.789 438.537C134.273 438.537 141.877 433.6 148.576 429.029C154.55 425.006 159.439 421.897 169.759 421.897C180.259 421.897 184.967 425.006 190.941 429.029C197.64 433.417 205.244 438.537 219.728 438.537C234.212 438.537 241.816 433.6 248.515 429.029C254.49 425.006 259.378 421.897 269.698 421.897C280.199 421.897 284.906 425.006 291.062 429.029C297.761 433.417 305.365 438.537 319.849 438.537C334.333 438.537 341.937 433.6 348.636 429.029C354.611 425.006 359.499 421.897 370 421.897V408C365 408 360 408 355 410.267C350 412.533 343.767 416.335 342.5 417.067Z" fill="#C3C6DE"/>
<path d="M342.5 462.4C336.525 466.423 332.342 469.973 321.841 469.973C311.34 469.973 306.632 466.865 300.477 462.842C299.209 461.928 297.942 461.196 296.494 460.282C290.7 456.625 283.458 453.333 271.509 453.333C259.74 453.333 252.498 456.625 246.524 460.282C245.075 461.196 243.808 461.928 242.541 462.842C236.566 466.865 231.678 469.973 221.358 469.973C210.857 469.973 206.15 466.865 200.175 462.842C198.908 461.928 197.64 461.196 196.192 460.282C190.398 456.625 183.156 453.333 171.207 453.333C159.439 453.333 152.197 456.625 146.222 460.282C144.774 461.196 143.506 461.928 142.239 462.842C136.264 466.865 131.376 469.973 121.056 469.973C110.555 469.973 105.848 466.865 99.8732 462.842C98.6059 461.928 97.3386 461.196 95.8902 460.282C90.0966 456.625 82.8545 453.333 70.9052 453.333C59.137 453.333 51.895 456.625 45.9203 460.282C44.4719 461.196 43.2046 461.928 41.9372 462.842C35.9626 466.865 31.0742 469.973 20.7544 469.973C10.2535 469.973 5.54614 466.865 -0.428497 462.842C-1.69586 461.928 -2.96323 461.196 -4.41162 460.282C-10.2052 456.625 -17.4472 453.333 -29.3965 453.333C-41.1648 453.333 -48.4068 456.625 -54.3814 460.282C-55.8298 461.196 -57.0972 461.928 -58.3645 462.842C-64.3392 466.865 -69.2275 469.973 -79.5474 469.973C-90.0483 469.973 -94.7556 466.865 -100.73 462.842C-101.998 461.928 -103.265 461.196 -104.713 460.282C-110.507 456.625 -117.749 453.333 -129.698 453.333C-141.466 453.333 -148.709 456.625 -154.683 460.282C-156.132 461.196 -157.399 461.928 -158.666 462.842C-164.641 466.865 -169.529 469.973 -179.849 469.973C-190.35 469.973 -195.057 466.865 -201.032 462.842C-202.299 461.928 -203.567 461.196 -205.015 460.282C-210.809 456.625 -218.051 453.333 -230 453.333V467.23C-219.499 467.23 -214.792 470.339 -208.817 474.362C-202.118 478.75 -194.514 483.87 -180.03 483.87C-165.546 483.87 -157.942 478.933 -151.243 474.362C-145.269 470.339 -140.38 467.23 -130.06 467.23C-119.559 467.23 -114.852 470.339 -108.877 474.362C-102.179 478.75 -94.5745 483.87 -80.0905 483.87C-65.6065 483.87 -58.0024 478.933 -51.3036 474.362C-45.3289 470.339 -40.4406 467.23 -30.1207 467.23C-19.6198 467.23 -14.9125 470.339 -8.93787 474.362C-2.23901 478.75 5.36513 483.87 19.8491 483.87C34.3331 483.87 41.9372 478.933 48.6361 474.362C54.6107 470.339 59.4991 467.23 69.8189 467.23C80.3198 467.23 85.0271 470.339 91.0018 474.362C97.7006 478.75 105.305 483.87 119.789 483.87C134.273 483.87 141.877 478.933 148.576 474.362C154.55 470.339 159.439 467.23 169.759 467.23C180.259 467.23 184.967 470.339 190.941 474.362C197.64 478.75 205.244 483.87 219.728 483.87C234.212 483.87 241.816 478.933 248.515 474.362C254.49 470.339 259.378 467.23 269.698 467.23C280.199 467.23 284.906 470.339 291.062 474.362C297.761 478.75 305.365 483.87 319.849 483.87C334.333 483.87 341.937 478.933 348.636 474.362C354.611 470.339 359.499 467.23 370 467.23V453.333C365 453.333 360 453.333 355 455.6C350 457.867 343.767 461.669 342.5 462.4Z" fill="#C3C6DE"/>
<path d="M342.5 507.733C336.525 511.756 332.342 515.307 321.841 515.307C311.34 515.307 306.632 512.198 300.477 508.175C299.209 507.261 297.942 506.53 296.494 505.615C290.7 501.958 283.458 498.667 271.509 498.667C259.74 498.667 252.498 501.958 246.524 505.615C245.075 506.53 243.808 507.261 242.541 508.175C236.566 512.198 231.678 515.307 221.358 515.307C210.857 515.307 206.15 512.198 200.175 508.175C198.908 507.261 197.64 506.53 196.192 505.615C190.398 501.958 183.156 498.667 171.207 498.667C159.439 498.667 152.197 501.958 146.222 505.615C144.774 506.53 143.506 507.261 142.239 508.175C136.264 512.198 131.376 515.307 121.056 515.307C110.555 515.307 105.848 512.198 99.8732 508.175C98.6059 507.261 97.3386 506.53 95.8902 505.615C90.0966 501.958 82.8545 498.667 70.9052 498.667C59.137 498.667 51.895 501.958 45.9203 505.615C44.4719 506.53 43.2046 507.261 41.9372 508.175C35.9626 512.198 31.0742 515.307 20.7544 515.307C10.2535 515.307 5.54614 512.198 -0.428497 508.175C-1.69586 507.261 -2.96323 506.53 -4.41162 505.615C-10.2052 501.958 -17.4472 498.667 -29.3965 498.667C-41.1648 498.667 -48.4068 501.958 -54.3814 505.615C-55.8298 506.53 -57.0972 507.261 -58.3645 508.175C-64.3392 512.198 -69.2275 515.307 -79.5474 515.307C-90.0483 515.307 -94.7556 512.198 -100.73 508.175C-101.998 507.261 -103.265 506.53 -104.713 505.615C-110.507 501.958 -117.749 498.667 -129.698 498.667C-141.466 498.667 -148.709 501.958 -154.683 505.615C-156.132 506.53 -157.399 507.261 -158.666 508.175C-164.641 512.198 -169.529 515.307 -179.849 515.307C-190.35 515.307 -195.057 512.198 -201.032 508.175C-202.299 507.261 -203.567 506.53 -205.015 505.615C-210.809 501.958 -218.051 498.667 -230 498.667V512.564C-219.499 512.564 -214.792 515.672 -208.817 519.695C-202.118 524.084 -194.514 529.204 -180.03 529.204C-165.546 529.204 -157.942 524.267 -151.243 519.695C-145.269 515.672 -140.38 512.564 -130.06 512.564C-119.559 512.564 -114.852 515.672 -108.877 519.695C-102.179 524.084 -94.5745 529.204 -80.0905 529.204C-65.6065 529.204 -58.0024 524.267 -51.3036 519.695C-45.3289 515.672 -40.4406 512.564 -30.1207 512.564C-19.6198 512.564 -14.9125 515.672 -8.93787 519.695C-2.23901 524.084 5.36513 529.204 19.8491 529.204C34.3331 529.204 41.9372 524.267 48.6361 519.695C54.6107 515.672 59.4991 512.564 69.8189 512.564C80.3198 512.564 85.0271 515.672 91.0018 519.695C97.7006 524.084 105.305 529.204 119.789 529.204C134.273 529.204 141.877 524.267 148.576 519.695C154.55 515.672 159.439 512.564 169.759 512.564C180.259 512.564 184.967 515.672 190.941 519.695C197.64 524.084 205.244 529.204 219.728 529.204C234.212 529.204 241.816 524.267 248.515 519.695C254.49 515.672 259.378 512.564 269.698 512.564C280.199 512.564 284.906 515.672 291.062 519.695C297.761 524.084 305.365 529.204 319.849 529.204C334.333 529.204 341.937 524.267 348.636 519.695C354.611 515.672 359.499 512.564 370 512.564V498.667C365 498.667 360 498.667 355 500.933C350 503.2 343.767 507.002 342.5 507.733Z" fill="#C3C6DE"/>
</g>
</g>
<defs>
<clipPath id="clip0">
<rect width="370" height="544" fill="white"/>
</clipPath>
</defs>
</svg>
