<svg width="370" height="544" fill="none" xmlns="http://www.w3.org/2000/svg"><g opacity=".5" fill="#C3C6DE" clip-path="url(#clip0)"><path d="M342.5 9.067c-5.975 4.022-10.158 7.573-20.659 7.573s-15.209-3.109-21.364-7.131c-1.268-.915-2.535-1.646-3.983-2.56C290.7 3.29 283.458 0 271.509 0c-11.769 0-19.011 3.291-24.985 6.949-1.449.914-2.716 1.645-3.983 2.56-5.975 4.022-10.863 7.131-21.183 7.131-10.501 0-15.208-3.109-21.183-7.131-1.267-.915-2.535-1.646-3.983-2.56C190.398 3.29 183.156 0 171.207 0c-11.768 0-19.01 3.291-24.985 6.949-1.448.914-2.716 1.645-3.983 2.56-5.975 4.022-10.863 7.131-21.183 7.131-10.501 0-15.208-3.109-21.183-7.131-1.267-.915-2.534-1.646-3.983-2.56C90.097 3.29 82.855 0 70.905 0 59.137 0 51.895 3.291 45.92 6.949c-1.448.914-2.715 1.645-3.983 2.56-5.974 4.022-10.863 7.131-21.183 7.131-10.5 0-15.208-3.109-21.182-7.131-1.268-.915-2.535-1.646-3.984-2.56C-10.205 3.29-17.447 0-29.397 0c-11.768 0-19.01 3.291-24.984 6.949-1.449.914-2.716 1.645-3.983 2.56-5.975 4.022-10.864 7.131-21.183 7.131-10.501 0-15.209-3.109-21.183-7.131-1.268-.915-2.535-1.646-3.983-2.56C-110.507 3.29-117.749 0-129.698 0c-11.768 0-19.011 3.291-24.985 6.949-1.449.914-2.716 1.645-3.983 2.56-5.975 4.022-10.863 7.131-21.183 7.131-10.501 0-15.208-3.109-21.183-7.131-1.267-.915-2.535-1.646-3.983-2.56C-210.809 3.29-218.051 0-230 0v13.897c10.501 0 15.208 3.109 21.183 7.132 6.699 4.388 14.303 9.508 28.787 9.508 14.484 0 22.088-4.937 28.787-9.508 5.974-4.023 10.863-7.132 21.183-7.132 10.501 0 15.208 3.109 21.183 7.132 6.698 4.388 14.302 9.508 28.786 9.508 14.484 0 22.089-4.937 28.787-9.508 5.975-4.023 10.863-7.132 21.183-7.132 10.501 0 15.208 3.109 21.183 7.132 6.699 4.388 14.303 9.508 28.787 9.508 14.484 0 22.088-4.937 28.787-9.508 5.975-4.023 10.863-7.132 21.183-7.132 10.5 0 15.208 3.109 21.183 7.132 6.699 4.388 14.303 9.508 28.787 9.508 14.484 0 22.088-4.937 28.787-9.508 5.974-4.023 10.863-7.132 21.183-7.132 10.5 0 15.208 3.109 21.182 7.132 6.699 4.388 14.303 9.508 28.787 9.508 14.484 0 22.088-4.937 28.787-9.508 5.975-4.023 10.863-7.132 21.183-7.132 10.501 0 15.208 3.109 21.364 7.132 6.699 4.388 14.303 9.508 28.787 9.508 14.484 0 22.088-4.937 28.787-9.508 5.975-4.023 10.863-7.132 21.364-7.132V0c-5 0-10 0-15 2.267-5 2.266-11.233 6.068-12.5 6.8zm0 45.333c-5.975 4.023-10.158 7.573-20.659 7.573s-15.209-3.108-21.364-7.131c-1.268-.914-2.535-1.646-3.983-2.56-5.794-3.657-13.036-6.949-24.985-6.949-11.769 0-19.011 3.292-24.985 6.949-1.449.914-2.716 1.646-3.983 2.56-5.975 4.023-10.863 7.131-21.183 7.131-10.501 0-15.208-3.108-21.183-7.131-1.267-.914-2.535-1.646-3.983-2.56-5.794-3.657-13.036-6.949-24.985-6.949-11.768 0-19.01 3.292-24.985 6.949-1.448.914-2.716 1.646-3.983 2.56-5.975 4.023-10.863 7.131-21.183 7.131-10.501 0-15.208-3.108-21.183-7.131-1.267-.914-2.534-1.646-3.983-2.56-5.793-3.657-13.035-6.949-24.985-6.949-11.768 0-19.01 3.292-24.985 6.949-1.448.914-2.715 1.646-3.983 2.56-5.974 4.023-10.863 7.131-21.183 7.131-10.5 0-15.208-3.108-21.182-7.131-1.268-.914-2.535-1.646-3.984-2.56-5.793-3.657-13.035-6.949-24.985-6.949-11.768 0-19.01 3.292-24.984 6.949-1.449.914-2.716 1.646-3.983 2.56-5.975 4.023-10.864 7.131-21.183 7.131-10.501 0-15.209-3.108-21.183-7.131-1.268-.914-2.535-1.646-3.983-2.56-5.794-3.657-13.036-6.949-24.985-6.949-11.768 0-19.011 3.292-24.985 6.949-1.449.914-2.716 1.646-3.983 2.56-5.975 4.023-10.863 7.131-21.183 7.131-10.501 0-15.208-3.108-21.183-7.131-1.267-.914-2.535-1.646-3.983-2.56-5.794-3.657-13.036-6.949-24.985-6.949v13.898c10.501 0 15.208 3.108 21.183 7.13 6.699 4.39 14.303 9.51 28.787 9.51 14.484 0 22.088-4.938 28.787-9.51 5.974-4.022 10.863-7.13 21.183-7.13 10.501 0 15.208 3.108 21.183 7.13 6.698 4.39 14.302 9.51 28.786 9.51 14.484 0 22.089-4.938 28.787-9.51 5.975-4.022 10.863-7.13 21.183-7.13 10.501 0 15.208 3.108 21.183 7.13 6.699 4.39 14.303 9.51 28.787 9.51 14.484 0 22.088-4.938 28.787-9.51 5.975-4.022 10.863-7.13 21.183-7.13 10.5 0 15.208 3.108 21.183 7.13 6.699 4.39 14.303 9.51 28.787 9.51 14.484 0 22.088-4.938 28.787-9.51 5.974-4.022 10.863-7.13 21.183-7.13 10.5 0 15.208 3.108 21.182 7.13 6.699 4.39 14.303 9.51 28.787 9.51 14.484 0 22.088-4.938 28.787-9.51 5.975-4.022 10.863-7.13 21.183-7.13 10.501 0 15.208 3.108 21.364 7.13 6.699 4.39 14.303 9.51 28.787 9.51 14.484 0 22.088-4.938 28.787-9.51 5.975-4.022 10.863-7.13 21.364-7.13V45.332c-5 0-10 0-15 2.267s-11.233 6.069-12.5 6.8zm0 45.333c-5.975 4.023-10.158 7.574-20.659 7.574s-15.209-3.109-21.364-7.132c-1.268-.914-2.535-1.645-3.983-2.56-5.794-3.657-13.036-6.948-24.985-6.948-11.769 0-19.011 3.291-24.985 6.948-1.449.915-2.716 1.646-3.983 2.56-5.975 4.023-10.863 7.132-21.183 7.132-10.501 0-15.208-3.109-21.183-7.132-1.267-.914-2.535-1.645-3.983-2.56-5.794-3.657-13.036-6.948-24.985-6.948-11.768 0-19.01 3.291-24.985 6.948-1.448.915-2.716 1.646-3.983 2.56-5.975 4.023-10.863 7.132-21.183 7.132-10.501 0-15.208-3.109-21.183-7.132-1.267-.914-2.534-1.645-3.983-2.56-5.793-3.657-13.035-6.948-24.985-6.948-11.768 0-19.01 3.291-24.985 6.948-1.448.915-2.715 1.646-3.983 2.56-5.974 4.023-10.863 7.132-21.183 7.132-10.5 0-15.208-3.109-21.182-7.132-1.268-.914-2.535-1.645-3.984-2.56-5.793-3.657-13.035-6.948-24.985-6.948-11.768 0-19.01 3.291-24.984 6.948-1.449.915-2.716 1.646-3.983 2.56-5.975 4.023-10.864 7.132-21.183 7.132-10.501 0-15.209-3.109-21.183-7.132-1.268-.914-2.535-1.645-3.983-2.56-5.794-3.657-13.036-6.948-24.985-6.948-11.768 0-19.011 3.291-24.985 6.948-1.449.915-2.716 1.646-3.983 2.56-5.975 4.023-10.863 7.132-21.183 7.132-10.501 0-15.208-3.109-21.183-7.132-1.267-.914-2.535-1.645-3.983-2.56-5.794-3.657-13.036-6.948-24.985-6.948v13.897c10.501 0 15.208 3.108 21.183 7.131 6.699 4.389 14.303 9.509 28.787 9.509 14.484 0 22.088-4.937 28.787-9.509 5.974-4.023 10.863-7.131 21.183-7.131 10.501 0 15.208 3.108 21.183 7.131 6.698 4.389 14.302 9.509 28.786 9.509 14.484 0 22.089-4.937 28.787-9.509 5.975-4.023 10.863-7.131 21.183-7.131 10.501 0 15.208 3.108 21.183 7.131 6.699 4.389 14.303 9.509 28.787 9.509 14.484 0 22.088-4.937 28.787-9.509 5.975-4.023 10.863-7.131 21.183-7.131 10.5 0 15.208 3.108 21.183 7.131 6.699 4.389 14.303 9.509 28.787 9.509 14.484 0 22.088-4.937 28.787-9.509 5.974-4.023 10.863-7.131 21.183-7.131 10.5 0 15.208 3.108 21.182 7.131 6.699 4.389 14.303 9.509 28.787 9.509 14.484 0 22.088-4.937 28.787-9.509 5.975-4.023 10.863-7.131 21.183-7.131 10.501 0 15.208 3.108 21.364 7.131 6.699 4.389 14.303 9.509 28.787 9.509 14.484 0 22.088-4.937 28.787-9.509 5.975-4.023 10.863-7.131 21.364-7.131V90.667c-5 0-10 0-15 2.266-5 2.267-11.233 6.069-12.5 6.8zm0 45.334c-5.975 4.023-10.158 7.573-20.659 7.573s-15.209-3.109-21.364-7.131c-1.268-.915-2.535-1.646-3.983-2.56-5.794-3.658-13.036-6.949-24.985-6.949-11.769 0-19.011 3.291-24.985 6.949-1.449.914-2.716 1.645-3.983 2.56-5.975 4.022-10.863 7.131-21.183 7.131-10.501 0-15.208-3.109-21.183-7.131-1.267-.915-2.535-1.646-3.983-2.56-5.794-3.658-13.036-6.949-24.985-6.949-11.768 0-19.01 3.291-24.985 6.949-1.448.914-2.716 1.645-3.983 2.56-5.975 4.022-10.863 7.131-21.183 7.131-10.501 0-15.208-3.109-21.183-7.131-1.267-.915-2.534-1.646-3.983-2.56C90.097 139.291 82.855 136 70.905 136c-11.768 0-19.01 3.291-24.985 6.949-1.448.914-2.715 1.645-3.983 2.56-5.974 4.022-10.863 7.131-21.183 7.131-10.5 0-15.208-3.109-21.182-7.131-1.268-.915-2.535-1.646-3.984-2.56-5.793-3.658-13.035-6.949-24.985-6.949-11.768 0-19.01 3.291-24.984 6.949-1.449.914-2.716 1.645-3.983 2.56-5.975 4.022-10.864 7.131-21.183 7.131-10.501 0-15.209-3.109-21.183-7.131-1.268-.915-2.535-1.646-3.983-2.56-5.794-3.658-13.036-6.949-24.985-6.949-11.768 0-19.011 3.291-24.985 6.949-1.449.914-2.716 1.645-3.983 2.56-5.975 4.022-10.863 7.131-21.183 7.131-10.501 0-15.208-3.109-21.183-7.131-1.267-.915-2.535-1.646-3.983-2.56C-210.809 139.291-218.051 136-230 136v13.897c10.501 0 15.208 3.109 21.183 7.132 6.699 4.388 14.303 9.508 28.787 9.508 14.484 0 22.088-4.937 28.787-9.508 5.974-4.023 10.863-7.132 21.183-7.132 10.501 0 15.208 3.109 21.183 7.132 6.698 4.388 14.302 9.508 28.786 9.508 14.484 0 22.089-4.937 28.787-9.508 5.975-4.023 10.863-7.132 21.183-7.132 10.501 0 15.208 3.109 21.183 7.132 6.699 4.388 14.303 9.508 28.787 9.508 14.484 0 22.088-4.937 28.787-9.508 5.975-4.023 10.863-7.132 21.183-7.132 10.5 0 15.208 3.109 21.183 7.132 6.699 4.388 14.303 9.508 28.787 9.508 14.484 0 22.088-4.937 28.787-9.508 5.974-4.023 10.863-7.132 21.183-7.132 10.5 0 15.208 3.109 21.182 7.132 6.699 4.388 14.303 9.508 28.787 9.508 14.484 0 22.088-4.937 28.787-9.508 5.975-4.023 10.863-7.132 21.183-7.132 10.501 0 15.208 3.109 21.364 7.132 6.699 4.388 14.303 9.508 28.787 9.508 14.484 0 22.088-4.937 28.787-9.508 5.975-4.023 10.863-7.132 21.364-7.132V136c-5 0-10 0-15 2.267-5 2.266-11.233 6.068-12.5 6.8zm0 45.333c-5.975 4.023-10.158 7.573-20.659 7.573s-15.209-3.108-21.364-7.131c-1.268-.914-2.535-1.646-3.983-2.56-5.794-3.657-13.036-6.949-24.985-6.949-11.769 0-19.011 3.292-24.985 6.949-1.449.914-2.716 1.646-3.983 2.56-5.975 4.023-10.863 7.131-21.183 7.131-10.501 0-15.208-3.108-21.183-7.131-1.267-.914-2.535-1.646-3.983-2.56-5.794-3.657-13.036-6.949-24.985-6.949-11.768 0-19.01 3.292-24.985 6.949-1.448.914-2.716 1.646-3.983 2.56-5.975 4.023-10.863 7.131-21.183 7.131-10.501 0-15.208-3.108-21.183-7.131-1.267-.914-2.534-1.646-3.983-2.56-5.793-3.657-13.035-6.949-24.985-6.949-11.768 0-19.01 3.292-24.985 6.949-1.448.914-2.715 1.646-3.983 2.56-5.974 4.023-10.863 7.131-21.183 7.131-10.5 0-15.208-3.108-21.182-7.131-1.268-.914-2.535-1.646-3.984-2.56-5.793-3.657-13.035-6.949-24.985-6.949-11.768 0-19.01 3.292-24.984 6.949-1.449.914-2.716 1.646-3.983 2.56-5.975 4.023-10.864 7.131-21.183 7.131-10.501 0-15.209-3.108-21.183-7.131-1.268-.914-2.535-1.646-3.983-2.56-5.794-3.657-13.036-6.949-24.985-6.949-11.768 0-19.011 3.292-24.985 6.949-1.449.914-2.716 1.646-3.983 2.56-5.975 4.023-10.863 7.131-21.183 7.131-10.501 0-15.208-3.108-21.183-7.131-1.267-.914-2.535-1.646-3.983-2.56-5.794-3.657-13.036-6.949-24.985-6.949v13.897c10.501 0 15.208 3.109 21.183 7.132 6.699 4.388 14.303 9.508 28.787 9.508 14.484 0 22.088-4.937 28.787-9.508 5.974-4.023 10.863-7.132 21.183-7.132 10.501 0 15.208 3.109 21.183 7.132 6.698 4.388 14.302 9.508 28.786 9.508 14.484 0 22.089-4.937 28.787-9.508 5.975-4.023 10.863-7.132 21.183-7.132 10.501 0 15.208 3.109 21.183 7.132 6.699 4.388 14.303 9.508 28.787 9.508 14.484 0 22.088-4.937 28.787-9.508 5.975-4.023 10.863-7.132 21.183-7.132 10.5 0 15.208 3.109 21.183 7.132 6.699 4.388 14.303 9.508 28.787 9.508 14.484 0 22.088-4.937 28.787-9.508 5.974-4.023 10.863-7.132 21.183-7.132 10.5 0 15.208 3.109 21.182 7.132 6.699 4.388 14.303 9.508 28.787 9.508 14.484 0 22.088-4.937 28.787-9.508 5.975-4.023 10.863-7.132 21.183-7.132 10.501 0 15.208 3.109 21.364 7.132 6.699 4.388 14.303 9.508 28.787 9.508 14.484 0 22.088-4.937 28.787-9.508 5.975-4.023 10.863-7.132 21.364-7.132v-13.897c-5 0-10 0-15 2.267s-11.233 6.069-12.5 6.8zm0 45.333c-5.975 4.023-10.158 7.574-20.659 7.574s-15.209-3.109-21.364-7.132c-1.268-.914-2.535-1.645-3.983-2.56-5.794-3.657-13.036-6.948-24.985-6.948-11.769 0-19.011 3.291-24.985 6.948-1.449.915-2.716 1.646-3.983 2.56-5.975 4.023-10.863 7.132-21.183 7.132-10.501 0-15.208-3.109-21.183-7.132-1.267-.914-2.535-1.645-3.983-2.56-5.794-3.657-13.036-6.948-24.985-6.948-11.768 0-19.01 3.291-24.985 6.948-1.448.915-2.716 1.646-3.983 2.56-5.975 4.023-10.863 7.132-21.183 7.132-10.501 0-15.208-3.109-21.183-7.132-1.267-.914-2.534-1.645-3.983-2.56-5.793-3.657-13.035-6.948-24.985-6.948-11.768 0-19.01 3.291-24.985 6.948-1.448.915-2.715 1.646-3.983 2.56-5.974 4.023-10.863 7.132-21.183 7.132-10.5 0-15.208-3.109-21.182-7.132-1.268-.914-2.535-1.645-3.984-2.56-5.793-3.657-13.035-6.948-24.985-6.948-11.768 0-19.01 3.291-24.984 6.948-1.449.915-2.716 1.646-3.983 2.56-5.975 4.023-10.864 7.132-21.183 7.132-10.501 0-15.209-3.109-21.183-7.132-1.268-.914-2.535-1.645-3.983-2.56-5.794-3.657-13.036-6.948-24.985-6.948-11.768 0-19.011 3.291-24.985 6.948-1.449.915-2.716 1.646-3.983 2.56-5.975 4.023-10.863 7.132-21.183 7.132-10.501 0-15.208-3.109-21.183-7.132-1.267-.914-2.535-1.645-3.983-2.56-5.794-3.657-13.036-6.948-24.985-6.948v13.897c10.501 0 15.208 3.108 21.183 7.131 6.699 4.389 14.303 9.509 28.787 9.509 14.484 0 22.088-4.937 28.787-9.509 5.974-4.023 10.863-7.131 21.183-7.131 10.501 0 15.208 3.108 21.183 7.131 6.698 4.389 14.302 9.509 28.786 9.509 14.484 0 22.089-4.937 28.787-9.509 5.975-4.023 10.863-7.131 21.183-7.131 10.501 0 15.208 3.108 21.183 7.131 6.699 4.389 14.303 9.509 28.787 9.509 14.484 0 22.088-4.937 28.787-9.509 5.975-4.023 10.863-7.131 21.183-7.131 10.5 0 15.208 3.108 21.183 7.131 6.699 4.389 14.303 9.509 28.787 9.509 14.484 0 22.088-4.937 28.787-9.509 5.974-4.023 10.863-7.131 21.183-7.131 10.5 0 15.208 3.108 21.182 7.131 6.699 4.389 14.303 9.509 28.787 9.509 14.484 0 22.088-4.937 28.787-9.509 5.975-4.023 10.863-7.131 21.183-7.131 10.501 0 15.208 3.108 21.364 7.131 6.699 4.389 14.303 9.509 28.787 9.509 14.484 0 22.088-4.937 28.787-9.509 5.975-4.023 10.863-7.131 21.364-7.131v-13.897c-5 0-10 0-15 2.266-5 2.267-11.233 6.069-12.5 6.8zm0 45.334c-5.975 4.023-10.158 7.573-20.659 7.573s-15.209-3.109-21.364-7.131c-1.268-.915-2.535-1.646-3.983-2.56-5.794-3.658-13.036-6.949-24.985-6.949-11.769 0-19.011 3.291-24.985 6.949-1.449.914-2.716 1.645-3.983 2.56-5.975 4.022-10.863 7.131-21.183 7.131-10.501 0-15.208-3.109-21.183-7.131-1.267-.915-2.535-1.646-3.983-2.56-5.794-3.658-13.036-6.949-24.985-6.949-11.768 0-19.01 3.291-24.985 6.949-1.448.914-2.716 1.645-3.983 2.56-5.975 4.022-10.863 7.131-21.183 7.131-10.501 0-15.208-3.109-21.183-7.131-1.267-.915-2.534-1.646-3.983-2.56C90.097 275.291 82.855 272 70.905 272c-11.768 0-19.01 3.291-24.985 6.949-1.448.914-2.715 1.645-3.983 2.56-5.974 4.022-10.863 7.131-21.183 7.131-10.5 0-15.208-3.109-21.182-7.131-1.268-.915-2.535-1.646-3.984-2.56-5.793-3.658-13.035-6.949-24.985-6.949-11.768 0-19.01 3.291-24.984 6.949-1.449.914-2.716 1.645-3.983 2.56-5.975 4.022-10.864 7.131-21.183 7.131-10.501 0-15.209-3.109-21.183-7.131-1.268-.915-2.535-1.646-3.983-2.56-5.794-3.658-13.036-6.949-24.985-6.949-11.768 0-19.011 3.291-24.985 6.949-1.449.914-2.716 1.645-3.983 2.56-5.975 4.022-10.863 7.131-21.183 7.131-10.501 0-15.208-3.109-21.183-7.131-1.267-.915-2.535-1.646-3.983-2.56C-210.809 275.291-218.051 272-230 272v13.897c10.501 0 15.208 3.109 21.183 7.132 6.699 4.388 14.303 9.508 28.787 9.508 14.484 0 22.088-4.937 28.787-9.508 5.974-4.023 10.863-7.132 21.183-7.132 10.501 0 15.208 3.109 21.183 7.132 6.698 4.388 14.302 9.508 28.786 9.508 14.484 0 22.089-4.937 28.787-9.508 5.975-4.023 10.863-7.132 21.183-7.132 10.501 0 15.208 3.109 21.183 7.132 6.699 4.388 14.303 9.508 28.787 9.508 14.484 0 22.088-4.937 28.787-9.508 5.975-4.023 10.863-7.132 21.183-7.132 10.5 0 15.208 3.109 21.183 7.132 6.699 4.388 14.303 9.508 28.787 9.508 14.484 0 22.088-4.937 28.787-9.508 5.974-4.023 10.863-7.132 21.183-7.132 10.5 0 15.208 3.109 21.182 7.132 6.699 4.388 14.303 9.508 28.787 9.508 14.484 0 22.088-4.937 28.787-9.508 5.975-4.023 10.863-7.132 21.183-7.132 10.501 0 15.208 3.109 21.364 7.132 6.699 4.388 14.303 9.508 28.787 9.508 14.484 0 22.088-4.937 28.787-9.508 5.975-4.023 10.863-7.132 21.364-7.132V272c-5 0-10 0-15 2.267-5 2.266-11.233 6.068-12.5 6.8zm0 45.333c-5.975 4.023-10.158 7.573-20.659 7.573s-15.209-3.108-21.364-7.131c-1.268-.914-2.535-1.646-3.983-2.56-5.794-3.657-13.036-6.949-24.985-6.949-11.769 0-19.011 3.292-24.985 6.949-1.449.914-2.716 1.646-3.983 2.56-5.975 4.023-10.863 7.131-21.183 7.131-10.501 0-15.208-3.108-21.183-7.131-1.267-.914-2.535-1.646-3.983-2.56-5.794-3.657-13.036-6.949-24.985-6.949-11.768 0-19.01 3.292-24.985 6.949-1.448.914-2.716 1.646-3.983 2.56-5.975 4.023-10.863 7.131-21.183 7.131-10.501 0-15.208-3.108-21.183-7.131-1.267-.914-2.534-1.646-3.983-2.56-5.793-3.657-13.035-6.949-24.985-6.949-11.768 0-19.01 3.292-24.985 6.949-1.448.914-2.715 1.646-3.983 2.56-5.974 4.023-10.863 7.131-21.183 7.131-10.5 0-15.208-3.108-21.182-7.131-1.268-.914-2.535-1.646-3.984-2.56-5.793-3.657-13.035-6.949-24.985-6.949-11.768 0-19.01 3.292-24.984 6.949-1.449.914-2.716 1.646-3.983 2.56-5.975 4.023-10.864 7.131-21.183 7.131-10.501 0-15.209-3.108-21.183-7.131-1.268-.914-2.535-1.646-3.983-2.56-5.794-3.657-13.036-6.949-24.985-6.949-11.768 0-19.011 3.292-24.985 6.949-1.449.914-2.716 1.646-3.983 2.56-5.975 4.023-10.863 7.131-21.183 7.131-10.501 0-15.208-3.108-21.183-7.131-1.267-.914-2.535-1.646-3.983-2.56-5.794-3.657-13.036-6.949-24.985-6.949v13.897c10.501 0 15.208 3.109 21.183 7.132 6.699 4.388 14.303 9.508 28.787 9.508 14.484 0 22.088-4.937 28.787-9.508 5.974-4.023 10.863-7.132 21.183-7.132 10.501 0 15.208 3.109 21.183 7.132 6.698 4.388 14.302 9.508 28.786 9.508 14.484 0 22.089-4.937 28.787-9.508 5.975-4.023 10.863-7.132 21.183-7.132 10.501 0 15.208 3.109 21.183 7.132 6.699 4.388 14.303 9.508 28.787 9.508 14.484 0 22.088-4.937 28.787-9.508 5.975-4.023 10.863-7.132 21.183-7.132 10.5 0 15.208 3.109 21.183 7.132 6.699 4.388 14.303 9.508 28.787 9.508 14.484 0 22.088-4.937 28.787-9.508 5.974-4.023 10.863-7.132 21.183-7.132 10.5 0 15.208 3.109 21.182 7.132 6.699 4.388 14.303 9.508 28.787 9.508 14.484 0 22.088-4.937 28.787-9.508 5.975-4.023 10.863-7.132 21.183-7.132 10.501 0 15.208 3.109 21.364 7.132 6.699 4.388 14.303 9.508 28.787 9.508 14.484 0 22.088-4.937 28.787-9.508 5.975-4.023 10.863-7.132 21.364-7.132v-13.897c-5 0-10 0-15 2.267s-11.233 6.069-12.5 6.8zm0 45.333c-5.975 4.023-10.158 7.574-20.659 7.574s-15.209-3.109-21.364-7.132c-1.268-.914-2.535-1.645-3.983-2.56-5.794-3.657-13.036-6.948-24.985-6.948-11.769 0-19.011 3.291-24.985 6.948-1.449.915-2.716 1.646-3.983 2.56-5.975 4.023-10.863 7.132-21.183 7.132-10.501 0-15.208-3.109-21.183-7.132-1.267-.914-2.535-1.645-3.983-2.56-5.794-3.657-13.036-6.948-24.985-6.948-11.768 0-19.01 3.291-24.985 6.948-1.448.915-2.716 1.646-3.983 2.56-5.975 4.023-10.863 7.132-21.183 7.132-10.501 0-15.208-3.109-21.183-7.132-1.267-.914-2.534-1.645-3.983-2.56-5.793-3.657-13.035-6.948-24.985-6.948-11.768 0-19.01 3.291-24.985 6.948-1.448.915-2.715 1.646-3.983 2.56-5.974 4.023-10.863 7.132-21.183 7.132-10.5 0-15.208-3.109-21.182-7.132-1.268-.914-2.535-1.645-3.984-2.56-5.793-3.657-13.035-6.948-24.985-6.948-11.768 0-19.01 3.291-24.984 6.948-1.449.915-2.716 1.646-3.983 2.56-5.975 4.023-10.864 7.132-21.183 7.132-10.501 0-15.209-3.109-21.183-7.132-1.268-.914-2.535-1.645-3.983-2.56-5.794-3.657-13.036-6.948-24.985-6.948-11.768 0-19.011 3.291-24.985 6.948-1.449.915-2.716 1.646-3.983 2.56-5.975 4.023-10.863 7.132-21.183 7.132-10.501 0-15.208-3.109-21.183-7.132-1.267-.914-2.535-1.645-3.983-2.56-5.794-3.657-13.036-6.948-24.985-6.948v13.897c10.501 0 15.208 3.108 21.183 7.131 6.699 4.389 14.303 9.509 28.787 9.509 14.484 0 22.088-4.937 28.787-9.509 5.974-4.023 10.863-7.131 21.183-7.131 10.501 0 15.208 3.108 21.183 7.131 6.698 4.389 14.302 9.509 28.786 9.509 14.484 0 22.089-4.937 28.787-9.509 5.975-4.023 10.863-7.131 21.183-7.131 10.501 0 15.208 3.108 21.183 7.131 6.699 4.389 14.303 9.509 28.787 9.509 14.484 0 22.088-4.937 28.787-9.509 5.975-4.023 10.863-7.131 21.183-7.131 10.5 0 15.208 3.108 21.183 7.131 6.699 4.389 14.303 9.509 28.787 9.509 14.484 0 22.088-4.937 28.787-9.509 5.974-4.023 10.863-7.131 21.183-7.131 10.5 0 15.208 3.108 21.182 7.131 6.699 4.389 14.303 9.509 28.787 9.509 14.484 0 22.088-4.937 28.787-9.509 5.975-4.023 10.863-7.131 21.183-7.131 10.501 0 15.208 3.108 21.364 7.131 6.699 4.389 14.303 9.509 28.787 9.509 14.484 0 22.088-4.937 28.787-9.509 5.975-4.023 10.863-7.131 21.364-7.131v-13.897c-5 0-10 0-15 2.266-5 2.267-11.233 6.069-12.5 6.8zm0 45.334c-5.975 4.023-10.158 7.573-20.659 7.573s-15.209-3.109-21.364-7.131c-1.268-.915-2.535-1.646-3.983-2.56-5.794-3.658-13.036-6.949-24.985-6.949-11.769 0-19.011 3.291-24.985 6.949-1.449.914-2.716 1.645-3.983 2.56-5.975 4.022-10.863 7.131-21.183 7.131-10.501 0-15.208-3.109-21.183-7.131-1.267-.915-2.535-1.646-3.983-2.56-5.794-3.658-13.036-6.949-24.985-6.949-11.768 0-19.01 3.291-24.985 6.949-1.448.914-2.716 1.645-3.983 2.56-5.975 4.022-10.863 7.131-21.183 7.131-10.501 0-15.208-3.109-21.183-7.131-1.267-.915-2.534-1.646-3.983-2.56C90.097 411.291 82.855 408 70.905 408c-11.768 0-19.01 3.291-24.985 6.949-1.448.914-2.715 1.645-3.983 2.56-5.974 4.022-10.863 7.131-21.183 7.131-10.5 0-15.208-3.109-21.182-7.131-1.268-.915-2.535-1.646-3.984-2.56-5.793-3.658-13.035-6.949-24.985-6.949-11.768 0-19.01 3.291-24.984 6.949-1.449.914-2.716 1.645-3.983 2.56-5.975 4.022-10.864 7.131-21.183 7.131-10.501 0-15.209-3.109-21.183-7.131-1.268-.915-2.535-1.646-3.983-2.56-5.794-3.658-13.036-6.949-24.985-6.949-11.768 0-19.011 3.291-24.985 6.949-1.449.914-2.716 1.645-3.983 2.56-5.975 4.022-10.863 7.131-21.183 7.131-10.501 0-15.208-3.109-21.183-7.131-1.267-.915-2.535-1.646-3.983-2.56C-210.809 411.291-218.051 408-230 408v13.897c10.501 0 15.208 3.109 21.183 7.132 6.699 4.388 14.303 9.508 28.787 9.508 14.484 0 22.088-4.937 28.787-9.508 5.974-4.023 10.863-7.132 21.183-7.132 10.501 0 15.208 3.109 21.183 7.132 6.698 4.388 14.302 9.508 28.786 9.508 14.484 0 22.089-4.937 28.787-9.508 5.975-4.023 10.863-7.132 21.183-7.132 10.501 0 15.208 3.109 21.183 7.132 6.699 4.388 14.303 9.508 28.787 9.508 14.484 0 22.088-4.937 28.787-9.508 5.975-4.023 10.863-7.132 21.183-7.132 10.5 0 15.208 3.109 21.183 7.132 6.699 4.388 14.303 9.508 28.787 9.508 14.484 0 22.088-4.937 28.787-9.508 5.974-4.023 10.863-7.132 21.183-7.132 10.5 0 15.208 3.109 21.182 7.132 6.699 4.388 14.303 9.508 28.787 9.508 14.484 0 22.088-4.937 28.787-9.508 5.975-4.023 10.863-7.132 21.183-7.132 10.501 0 15.208 3.109 21.364 7.132 6.699 4.388 14.303 9.508 28.787 9.508 14.484 0 22.088-4.937 28.787-9.508 5.975-4.023 10.863-7.132 21.364-7.132V408c-5 0-10 0-15 2.267-5 2.266-11.233 6.068-12.5 6.8zm0 45.333c-5.975 4.023-10.158 7.573-20.659 7.573s-15.209-3.108-21.364-7.131c-1.268-.914-2.535-1.646-3.983-2.56-5.794-3.657-13.036-6.949-24.985-6.949-11.769 0-19.011 3.292-24.985 6.949-1.449.914-2.716 1.646-3.983 2.56-5.975 4.023-10.863 7.131-21.183 7.131-10.501 0-15.208-3.108-21.183-7.131-1.267-.914-2.535-1.646-3.983-2.56-5.794-3.657-13.036-6.949-24.985-6.949-11.768 0-19.01 3.292-24.985 6.949-1.448.914-2.716 1.646-3.983 2.56-5.975 4.023-10.863 7.131-21.183 7.131-10.501 0-15.208-3.108-21.183-7.131-1.267-.914-2.534-1.646-3.983-2.56-5.793-3.657-13.035-6.949-24.985-6.949-11.768 0-19.01 3.292-24.985 6.949-1.448.914-2.715 1.646-3.983 2.56-5.974 4.023-10.863 7.131-21.183 7.131-10.5 0-15.208-3.108-21.182-7.131-1.268-.914-2.535-1.646-3.984-2.56-5.793-3.657-13.035-6.949-24.985-6.949-11.768 0-19.01 3.292-24.984 6.949-1.449.914-2.716 1.646-3.983 2.56-5.975 4.023-10.864 7.131-21.183 7.131-10.501 0-15.209-3.108-21.183-7.131-1.268-.914-2.535-1.646-3.983-2.56-5.794-3.657-13.036-6.949-24.985-6.949-11.768 0-19.011 3.292-24.985 6.949-1.449.914-2.716 1.646-3.983 2.56-5.975 4.023-10.863 7.131-21.183 7.131-10.501 0-15.208-3.108-21.183-7.131-1.267-.914-2.535-1.646-3.983-2.56-5.794-3.657-13.036-6.949-24.985-6.949v13.897c10.501 0 15.208 3.109 21.183 7.132 6.699 4.388 14.303 9.508 28.787 9.508 14.484 0 22.088-4.937 28.787-9.508 5.974-4.023 10.863-7.132 21.183-7.132 10.501 0 15.208 3.109 21.183 7.132 6.698 4.388 14.302 9.508 28.786 9.508 14.484 0 22.089-4.937 28.787-9.508 5.975-4.023 10.863-7.132 21.183-7.132 10.501 0 15.208 3.109 21.183 7.132 6.699 4.388 14.303 9.508 28.787 9.508 14.484 0 22.088-4.937 28.787-9.508 5.975-4.023 10.863-7.132 21.183-7.132 10.5 0 15.208 3.109 21.183 7.132 6.699 4.388 14.303 9.508 28.787 9.508 14.484 0 22.088-4.937 28.787-9.508 5.974-4.023 10.863-7.132 21.183-7.132 10.5 0 15.208 3.109 21.182 7.132 6.699 4.388 14.303 9.508 28.787 9.508 14.484 0 22.088-4.937 28.787-9.508 5.975-4.023 10.863-7.132 21.183-7.132 10.501 0 15.208 3.109 21.364 7.132 6.699 4.388 14.303 9.508 28.787 9.508 14.484 0 22.088-4.937 28.787-9.508 5.975-4.023 10.863-7.132 21.364-7.132v-13.897c-5 0-10 0-15 2.267s-11.233 6.069-12.5 6.8zm0 45.333c-5.975 4.023-10.158 7.574-20.659 7.574s-15.209-3.109-21.364-7.132c-1.268-.914-2.535-1.645-3.983-2.56-5.794-3.657-13.036-6.948-24.985-6.948-11.769 0-19.011 3.291-24.985 6.948-1.449.915-2.716 1.646-3.983 2.56-5.975 4.023-10.863 7.132-21.183 7.132-10.501 0-15.208-3.109-21.183-7.132-1.267-.914-2.535-1.645-3.983-2.56-5.794-3.657-13.036-6.948-24.985-6.948-11.768 0-19.01 3.291-24.985 6.948-1.448.915-2.716 1.646-3.983 2.56-5.975 4.023-10.863 7.132-21.183 7.132-10.501 0-15.208-3.109-21.183-7.132-1.267-.914-2.534-1.645-3.983-2.56-5.793-3.657-13.035-6.948-24.985-6.948-11.768 0-19.01 3.291-24.985 6.948-1.448.915-2.715 1.646-3.983 2.56-5.974 4.023-10.863 7.132-21.183 7.132-10.5 0-15.208-3.109-21.182-7.132-1.268-.914-2.535-1.645-3.984-2.56-5.793-3.657-13.035-6.948-24.985-6.948-11.768 0-19.01 3.291-24.984 6.948-1.449.915-2.716 1.646-3.983 2.56-5.975 4.023-10.864 7.132-21.183 7.132-10.501 0-15.209-3.109-21.183-7.132-1.268-.914-2.535-1.645-3.983-2.56-5.794-3.657-13.036-6.948-24.985-6.948-11.768 0-19.011 3.291-24.985 6.948-1.449.915-2.716 1.646-3.983 2.56-5.975 4.023-10.863 7.132-21.183 7.132-10.501 0-15.208-3.109-21.183-7.132-1.267-.914-2.535-1.645-3.983-2.56-5.794-3.657-13.036-6.948-24.985-6.948v13.897c10.501 0 15.208 3.108 21.183 7.131 6.699 4.389 14.303 9.509 28.787 9.509 14.484 0 22.088-4.937 28.787-9.509 5.974-4.023 10.863-7.131 21.183-7.131 10.501 0 15.208 3.108 21.183 7.131 6.698 4.389 14.302 9.509 28.786 9.509 14.484 0 22.089-4.937 28.787-9.509 5.975-4.023 10.863-7.131 21.183-7.131 10.501 0 15.208 3.108 21.183 7.131 6.699 4.389 14.303 9.509 28.787 9.509 14.484 0 22.088-4.937 28.787-9.509 5.975-4.023 10.863-7.131 21.183-7.131 10.5 0 15.208 3.108 21.183 7.131 6.699 4.389 14.303 9.509 28.787 9.509 14.484 0 22.088-4.937 28.787-9.509 5.974-4.023 10.863-7.131 21.183-7.131 10.5 0 15.208 3.108 21.182 7.131 6.699 4.389 14.303 9.509 28.787 9.509 14.484 0 22.088-4.937 28.787-9.509 5.975-4.023 10.863-7.131 21.183-7.131 10.501 0 15.208 3.108 21.364 7.131 6.699 4.389 14.303 9.509 28.787 9.509 14.484 0 22.088-4.937 28.787-9.509 5.975-4.023 10.863-7.131 21.364-7.131v-13.897c-5 0-10 0-15 2.266-5 2.267-11.233 6.069-12.5 6.8z"/></g><defs><clipPath id="clip0"><path fill="#fff" d="M0 0h370v544H0z"/></clipPath></defs></svg>