<svg width="290" height="128" fill="none" xmlns="http://www.w3.org/2000/svg"><g clip-path="url(#clip0)" fill="#fff"><path d="M233.143 72.34c-7.674 0-14.727-3.426-18.876-9.326l-24.684-34.828c-1.867-2.474-4.563-2.855-5.6-2.855s-3.941.19-5.601 2.855l-24.684 34.828c-4.149 5.9-11.201 9.325-18.876 9.325-7.675 0-14.728-3.425-18.876-9.325L91.262 28.186c-1.867-2.474-4.564-2.855-5.6-2.855-1.038 0-3.942.19-5.602 2.855L55.378 63.014c-4.149 5.9-11.202 9.325-18.877 9.325-7.675 0-14.727-3.425-18.876-9.325L-7.06 28.186c-1.867-2.474-4.563-2.855-5.6-2.855s-3.941.19-5.6 2.855l-24.685 34.828c-4.149 5.9-11.201 9.325-18.876 9.325-7.675 0-14.728-3.425-18.876-9.325l-24.684-34.828c-1.867-2.474-4.564-2.855-5.601-2.855s-3.941.19-5.6 2.855l-24.685 34.828c-4.148 5.9-11.201 9.325-18.876 9.325-7.674 0-14.727-3.425-18.876-9.325l-24.684-34.828c-1.867-2.474-4.563-2.855-5.6-2.855-1.038 0-3.942.19-5.601 2.855l-24.684 34.828c-4.149 5.9-11.201 9.325-18.876 9.325-7.675 0-14.728-3.425-18.876-9.325l-24.684-34.828c-1.867-2.474-4.564-2.855-5.601-2.855s-3.941.19-5.601 2.855l-24.684 34.828c-4.148 5.9-11.201 9.325-18.876 9.325-7.675 0-14.727-3.425-18.876-9.325l-36.922-51.957c-2.282-3.425-1.245-7.803 2.281-9.896 3.734-2.094 8.505-1.142 10.787 2.093l36.922 51.957c1.867 2.474 4.564 2.855 5.601 2.855s3.941-.19 5.6-2.855l24.685-34.828c4.148-5.9 11.201-9.326 18.876-9.326 7.675 0 14.727 3.426 18.876 9.326l24.684 34.828c1.867 2.474 4.563 2.855 5.6 2.855 1.038 0 3.942-.19 5.601-2.855l24.684-34.828c4.149-5.9 11.201-9.326 18.876-9.326 7.675 0 14.728 3.426 18.876 9.326l24.684 34.828c1.867 2.474 4.564 2.855 5.601 2.855s3.941-.19 5.601-2.855l24.684-34.828c4.148-5.9 11.201-9.326 18.876-9.326 7.675 0 14.727 3.426 18.876 9.326L-67.63 55.21c1.867 2.474 4.563 2.855 5.6 2.855 1.038 0 3.942-.19 5.601-2.855l24.684-34.828c4.149-5.9 11.201-9.326 18.876-9.326 7.675 0 14.728 3.426 18.876 9.326L30.692 55.21c1.867 2.474 4.564 2.855 5.6 2.855 1.038 0 3.942-.19 5.602-2.855l24.684-34.828c4.148-5.9 11.201-9.326 18.876-9.326 7.675 0 14.727 3.426 18.876 9.326l24.684 34.828c1.867 2.474 4.563 2.855 5.601 2.855 1.037 0 3.941-.19 5.6-2.855l24.684-34.828c4.149-5.9 11.201-9.326 18.876-9.326 7.675 0 14.728 3.426 18.876 9.326l24.684 34.828c1.867 2.474 4.564 2.855 5.601 2.855s3.941-.19 5.601-2.855l37.13-51.957c2.281-3.425 7.259-4.187 10.786-2.093 3.733 2.093 4.563 6.661 2.282 9.896l-36.923 51.957c-4.148 5.9-11.201 9.325-18.669 9.325z"/><path d="M233.148 135.524c-7.675 0-14.728-3.425-18.876-9.325l-24.684-34.828c-1.867-2.474-4.564-2.855-5.601-2.855s-3.941.19-5.601 2.855l-24.684 34.828c-4.148 5.9-11.201 9.325-18.876 9.325-7.675 0-14.727-3.425-18.876-9.325L91.266 91.371c-1.867-2.474-4.563-2.855-5.6-2.855-1.038 0-3.942.19-5.601 2.855L55.38 126.199c-4.149 5.9-11.202 9.325-18.876 9.325-7.675 0-14.728-3.425-18.876-9.325L-7.056 91.371c-1.866-2.474-4.563-2.855-5.6-2.855s-3.941.19-5.6 2.855l-24.685 34.828c-4.148 5.9-11.2 9.325-18.876 9.325-7.675 0-14.727-3.425-18.876-9.325l-24.684-34.828c-1.867-2.474-4.564-2.855-5.601-2.855s-3.941.19-5.6 2.855l-24.684 34.828c-4.149 5.9-11.201 9.325-18.876 9.325-7.675 0-14.728-3.425-18.876-9.325l-24.685-34.828c-1.866-2.474-4.563-2.855-5.6-2.855s-3.941.19-5.601 2.855l-24.684 34.828c-4.148 5.9-11.201 9.325-18.876 9.325-7.675 0-14.727-3.425-18.876-9.325l-24.684-34.828c-1.867-2.474-4.564-2.855-5.601-2.855s-3.941.19-5.6 2.855l-24.684 34.828c-4.149 5.9-11.202 9.325-18.877 9.325-7.674 0-14.727-3.425-18.876-9.325l-36.922-51.956c-2.282-3.426-1.245-7.803 2.282-9.897 3.733-2.093 8.504-1.142 10.786 2.093l36.922 51.957c1.867 2.474 4.564 2.855 5.601 2.855s3.941-.191 5.601-2.855l24.684-34.828c4.148-5.9 11.201-9.325 18.876-9.325 7.675 0 14.727 3.425 18.876 9.325l24.684 34.828c1.867 2.474 4.564 2.855 5.601 2.855s3.941-.191 5.6-2.855l24.684-34.828c4.149-5.9 11.201-9.325 18.876-9.325 7.675 0 14.728 3.425 18.877 9.325l24.684 34.828c1.866 2.474 4.563 2.855 5.6 2.855s3.941-.191 5.601-2.855l24.684-34.828c4.149-5.9 11.201-9.325 18.876-9.325 7.675 0 14.727 3.425 18.876 9.325l24.684 34.828c1.867 2.474 4.563 2.855 5.6 2.855 1.038 0 3.942-.191 5.601-2.855l24.684-34.828c4.15-5.9 11.202-9.325 18.877-9.325 7.674 0 14.727 3.425 18.876 9.325l24.684 34.828c1.867 2.474 4.563 2.855 5.6 2.855s3.942-.191 5.601-2.855l24.684-34.828c4.149-5.9 11.201-9.325 18.876-9.325 7.675 0 14.728 3.425 18.876 9.325l24.684 34.828c1.867 2.474 4.564 2.855 5.601 2.855s3.941-.191 5.6-2.855l24.685-34.828c4.148-5.9 11.201-9.325 18.876-9.325 7.674 0 14.727 3.425 18.876 9.325l24.684 34.828c1.867 2.474 4.563 2.855 5.6 2.855 1.038 0 3.941-.191 5.601-2.855l36.923-51.957c2.281-3.425 7.259-4.186 10.786-2.093 3.733 2.093 4.563 6.661 2.281 9.897l-36.922 51.956c-3.941 5.9-10.994 9.325-18.461 9.325z"/><path d="M233.148 198.71c-7.675 0-14.728-3.426-18.876-9.326l-24.684-34.828c-1.867-2.474-4.564-2.854-5.601-2.854s-3.941.19-5.601 2.854l-24.684 34.828c-4.148 5.9-11.201 9.326-18.876 9.326-7.675 0-14.727-3.426-18.876-9.326l-24.684-34.828c-1.867-2.474-4.563-2.854-5.6-2.854-1.038 0-3.942.19-5.601 2.854L55.38 189.384c-4.149 5.9-11.202 9.326-18.876 9.326-7.675 0-14.728-3.426-18.876-9.326l-24.685-34.828c-1.866-2.474-4.563-2.854-5.6-2.854s-3.941.19-5.6 2.854l-24.685 34.828c-4.148 5.9-11.2 9.326-18.876 9.326-7.675 0-14.727-3.426-18.876-9.326l-24.684-34.828c-1.867-2.474-4.564-2.854-5.601-2.854s-3.941.19-5.6 2.854l-24.684 34.828c-4.149 5.9-11.201 9.326-18.876 9.326-7.675 0-14.728-3.426-18.876-9.326l-24.685-34.828c-1.866-2.474-4.563-2.854-5.6-2.854s-3.941.19-5.601 2.854l-24.684 34.828c-4.148 5.9-11.201 9.326-18.876 9.326-7.675 0-14.727-3.426-18.876-9.326l-24.684-34.828c-1.867-2.474-4.564-2.854-5.601-2.854s-3.941.19-5.6 2.854l-24.684 34.828c-4.149 5.9-11.202 9.326-18.877 9.326-7.674 0-14.727-3.426-18.876-9.326l-36.922-51.956c-2.282-3.426-1.245-7.803 2.282-9.897 3.733-2.093 8.504-1.142 10.786 2.094l36.922 51.956c1.867 2.474 4.564 2.855 5.601 2.855s3.941-.19 5.601-2.855l24.684-34.828c4.148-5.9 11.201-9.325 18.876-9.325 7.675 0 14.727 3.425 18.876 9.325l24.684 34.828c1.867 2.474 4.564 2.855 5.601 2.855s3.941-.19 5.6-2.855l24.684-34.828c4.149-5.9 11.201-9.325 18.876-9.325 7.675 0 14.728 3.425 18.877 9.325l24.684 34.828c1.866 2.474 4.563 2.855 5.6 2.855s3.941-.19 5.601-2.855l24.684-34.828c4.149-5.9 11.201-9.325 18.876-9.325 7.675 0 14.727 3.425 18.876 9.325l24.684 34.828c1.867 2.474 4.563 2.855 5.6 2.855 1.038 0 3.942-.19 5.601-2.855l24.684-34.828c4.15-5.9 11.202-9.325 18.877-9.325 7.674 0 14.727 3.425 18.876 9.325l24.684 34.828c1.867 2.474 4.563 2.855 5.6 2.855s3.942-.19 5.601-2.855l24.684-34.828c4.149-5.9 11.201-9.325 18.876-9.325 7.675 0 14.728 3.425 18.876 9.325l24.684 34.828c1.867 2.474 4.564 2.855 5.601 2.855s3.941-.19 5.6-2.855l24.685-34.828c4.148-5.9 11.201-9.325 18.876-9.325 7.674 0 14.727 3.425 18.876 9.325l24.684 34.828c1.867 2.474 4.563 2.855 5.6 2.855 1.038 0 3.941-.19 5.601-2.855l36.923-51.956c2.281-3.426 7.259-4.187 10.786-2.094 3.733 2.094 4.563 6.661 2.281 9.897l-36.922 51.956c-3.941 5.9-10.994 9.326-18.461 9.326z"/></g><defs><clipPath id="clip0"><path fill="#fff" d="M0 0h290v128H0z"/></clipPath></defs></svg>