<svg width="12" height="160" fill="none" xmlns="http://www.w3.org/2000/svg"><path d="M3.737 7.145c1.58 1.594 2.802 2.897 2.802 5.697 0 2.8-1.222 4.056-2.802 5.697-.36.338-.647.676-1.006 1.063C1.293 21.147 0 23.078 0 26.264c0 3.139 1.293 5.07 2.73 6.663.36.386.647.724 1.007 1.062 1.58 1.593 2.802 2.897 2.802 5.649 0 2.8-1.222 4.055-2.802 5.649-.36.338-.647.676-1.006 1.062C1.293 47.894 0 49.825 0 53.012c0 3.138 1.293 5.069 2.73 6.662.36.386.647.724 1.007 1.062 1.58 1.594 2.802 2.897 2.802 5.649 0 2.8-1.222 4.056-2.802 5.649-.36.338-.647.676-1.006 1.062C1.293 74.641 0 76.572 0 79.759c0 3.138 1.293 5.069 2.73 6.662.36.386.647.724 1.007 1.062 1.58 1.594 2.802 2.897 2.802 5.65 0 2.8-1.222 4.055-2.802 5.648-.36.338-.647.676-1.006 1.062C1.293 101.388 0 103.32 0 106.506c0 3.138 1.293 5.069 2.73 6.662.36.387.647.725 1.007 1.063 1.58 1.593 2.802 2.896 2.802 5.648 0 2.801-1.222 4.056-2.802 5.649-.36.338-.647.676-1.006 1.062C1.293 128.135 0 130.066 0 133.253c0 3.138 1.293 5.069 2.73 6.663.36.386.647.724 1.007 1.062 1.58 1.593 2.802 2.896 2.802 5.648 0 2.801-1.222 4.056-2.802 5.649-.36.338-.647.676-1.006 1.062C1.293 154.882 0 156.814 0 160h5.461c0-2.8 1.222-4.056 2.802-5.649 1.725-1.786 3.737-3.814 3.737-7.676 0-3.863-1.94-5.89-3.737-7.677-1.58-1.593-2.802-2.897-2.802-5.649 0-2.8 1.222-4.055 2.802-5.648 1.725-1.787 3.737-3.814 3.737-7.677 0-3.862-1.94-5.89-3.737-7.676-1.58-1.594-2.802-2.897-2.802-5.649 0-2.8 1.222-4.056 2.802-5.649C9.988 99.264 12 97.236 12 93.374c0-3.863-1.94-5.89-3.737-7.677-1.58-1.593-2.802-2.897-2.802-5.649 0-2.8 1.222-4.055 2.802-5.648C9.988 72.612 12 70.585 12 66.722c0-3.862-1.94-5.89-3.737-7.676-1.58-1.594-2.802-2.897-2.802-5.65 0-2.8 1.222-4.055 2.802-5.648C9.988 45.963 12 43.935 12 40.072c0-3.862-1.94-5.89-3.737-7.676-1.58-1.593-2.802-2.897-2.802-5.649 0-2.8 1.222-4.055 2.802-5.697C9.988 19.264 12 17.236 12 13.374c0-3.863-1.94-5.89-3.737-7.677C6.683 4.104 5.461 2.8 5.461 0H0c0 3.138 1.293 5.07 2.73 6.663.36-.193.72.145 1.007.482z" fill="#77E8C6"/></svg>